<svg width="300" height="40" viewBox="0 0 300 40" fill="none" xmlns="http://www.w3.org/2000/svg">
<rect width="300" height="40" rx="20" fill="#4162FF"/>
<rect x="0.5" y="0.5" width="299" height="39" rx="19.5" stroke="white" stroke-opacity="0.06"/>
<path d="M75.1485 19.8099C80.3959 17.5237 83.895 16.0165 85.6457 15.2883C90.6445 13.2092 91.6832 12.848 92.3602 12.8361C92.5091 12.8334 92.8421 12.8703 93.0577 13.0453C93.2398 13.1931 93.2899 13.3927 93.3139 13.5328C93.3379 13.6729 93.3677 13.992 93.344 14.2414C93.0731 17.0876 91.901 23.9947 91.3047 27.1825C91.0524 28.5314 90.5556 28.9836 90.0746 29.0279C89.0293 29.1241 88.2355 28.3371 87.2231 27.6735C85.6389 26.635 84.7439 25.9885 83.2061 24.9751C81.4289 23.804 82.581 23.1603 83.5938 22.1084C83.8589 21.8331 88.4645 17.644 88.5536 17.264C88.5647 17.2164 88.5751 17.0393 88.4698 16.9457C88.3646 16.8522 88.2093 16.8842 88.0972 16.9096C87.9383 16.9457 85.4074 18.6184 80.5046 21.928C79.7863 22.4212 79.1356 22.6616 78.5526 22.649C77.9099 22.6351 76.6736 22.2856 75.7546 21.9869C74.6273 21.6204 73.7314 21.4267 73.8094 20.8044C73.8501 20.4803 74.2964 20.1488 75.1485 19.8099Z" fill="white"/>
<path d="M110.538 18.1172C110.491 17.683 110.296 17.3449 109.951 17.103C109.61 16.861 109.165 16.7401 108.619 16.7401C108.234 16.7401 107.904 16.7981 107.629 16.9141C107.354 17.0301 107.144 17.1875 106.998 17.3864C106.852 17.5852 106.777 17.8123 106.774 18.0675C106.774 18.2796 106.822 18.4635 106.918 18.6193C107.018 18.7751 107.152 18.9077 107.321 19.017C107.49 19.1231 107.677 19.2126 107.883 19.2855C108.088 19.3584 108.295 19.4197 108.504 19.4695L109.459 19.7081C109.843 19.7976 110.213 19.9186 110.567 20.071C110.925 20.2235 111.245 20.4157 111.527 20.6477C111.812 20.8797 112.037 21.1598 112.203 21.4879C112.369 21.8161 112.452 22.2005 112.452 22.6413C112.452 23.2379 112.299 23.7633 111.994 24.2173C111.689 24.6681 111.249 25.0211 110.672 25.2763C110.098 25.5282 109.404 25.6541 108.589 25.6541C107.797 25.6541 107.109 25.5315 106.526 25.2862C105.946 25.041 105.491 24.683 105.163 24.2124C104.839 23.7417 104.663 23.1683 104.636 22.4922H106.451C106.478 22.8468 106.587 23.1418 106.779 23.3771C106.971 23.6125 107.222 23.7881 107.53 23.9041C107.841 24.0201 108.189 24.0781 108.574 24.0781C108.975 24.0781 109.326 24.0185 109.628 23.8991C109.933 23.7765 110.171 23.6075 110.344 23.392C110.516 23.1733 110.604 22.9181 110.607 22.6264C110.604 22.3613 110.526 22.1425 110.374 21.9702C110.221 21.7945 110.007 21.6487 109.732 21.5327C109.46 21.4134 109.142 21.3073 108.778 21.2145L107.619 20.9162C106.781 20.7008 106.118 20.3743 105.631 19.9368C105.147 19.496 104.905 18.911 104.905 18.1818C104.905 17.5819 105.067 17.0566 105.392 16.6058C105.72 16.1551 106.166 15.8054 106.729 15.5568C107.293 15.3049 107.931 15.179 108.643 15.179C109.366 15.179 109.999 15.3049 110.543 15.5568C111.089 15.8054 111.519 16.1518 111.83 16.5959C112.142 17.0367 112.303 17.5438 112.312 18.1172H110.538ZM118.39 17.8636V19.2557H114V17.8636H118.39ZM115.084 16.0341H116.883V23.2031C116.883 23.4451 116.92 23.6307 116.993 23.7599C117.069 23.8859 117.168 23.9721 117.291 24.0185C117.414 24.0649 117.55 24.0881 117.699 24.0881C117.811 24.0881 117.914 24.0798 118.007 24.0632C118.103 24.0466 118.176 24.0317 118.226 24.0185L118.529 25.4254C118.433 25.4586 118.295 25.495 118.116 25.5348C117.941 25.5746 117.725 25.5978 117.47 25.6044C117.019 25.6177 116.613 25.5497 116.252 25.4006C115.891 25.2481 115.604 25.0128 115.392 24.6946C115.183 24.3764 115.08 23.9787 115.084 23.5014V16.0341ZM122.652 25.6541C122.168 25.6541 121.733 25.5679 121.345 25.3956C120.96 25.2199 120.655 24.9614 120.43 24.62C120.208 24.2786 120.097 23.8577 120.097 23.3572C120.097 22.9264 120.176 22.5701 120.336 22.2884C120.495 22.0066 120.712 21.7812 120.987 21.6122C121.262 21.4432 121.572 21.3156 121.917 21.2294C122.265 21.1399 122.624 21.0753 122.995 21.0355C123.443 20.9891 123.806 20.9477 124.084 20.9112C124.363 20.8714 124.565 20.8118 124.691 20.7322C124.82 20.6494 124.885 20.5218 124.885 20.3494V20.3196C124.885 19.9451 124.774 19.6551 124.551 19.4496C124.329 19.2441 124.01 19.1413 123.592 19.1413C123.151 19.1413 122.801 19.2375 122.543 19.4297C122.288 19.6219 122.115 19.849 122.026 20.1108L120.345 19.8722C120.478 19.4081 120.697 19.0204 121.002 18.7088C121.307 18.3939 121.68 18.1586 122.12 18.0028C122.561 17.8438 123.048 17.7642 123.582 17.7642C123.95 17.7642 124.316 17.8073 124.681 17.8935C125.045 17.9796 125.378 18.1222 125.68 18.321C125.982 18.5166 126.224 18.7834 126.406 19.1214C126.591 19.4595 126.684 19.8821 126.684 20.3892V25.5H124.954V24.451H124.895C124.785 24.6631 124.631 24.862 124.432 25.0476C124.237 25.2299 123.99 25.3774 123.691 25.4901C123.396 25.5994 123.05 25.6541 122.652 25.6541ZM123.12 24.3317C123.481 24.3317 123.794 24.2604 124.059 24.1179C124.324 23.9721 124.528 23.7798 124.671 23.5412C124.817 23.3026 124.89 23.0424 124.89 22.7607V21.8608C124.833 21.9072 124.737 21.9503 124.601 21.9901C124.469 22.0298 124.319 22.0646 124.154 22.0945C123.988 22.1243 123.824 22.1508 123.662 22.174C123.499 22.1972 123.358 22.2171 123.239 22.2337C122.97 22.2701 122.73 22.3298 122.518 22.4126C122.306 22.4955 122.139 22.6115 122.016 22.7607C121.893 22.9065 121.832 23.0954 121.832 23.3274C121.832 23.6589 121.953 23.9091 122.195 24.0781C122.437 24.2472 122.745 24.3317 123.12 24.3317ZM129.054 25.5V17.8636H130.799V19.1364H130.879C131.018 18.6955 131.256 18.3558 131.594 18.1172C131.936 17.8752 132.325 17.7543 132.763 17.7543C132.862 17.7543 132.973 17.7592 133.096 17.7692C133.222 17.7758 133.326 17.7874 133.409 17.804V19.4595C133.333 19.433 133.212 19.4098 133.046 19.3899C132.884 19.3667 132.726 19.3551 132.574 19.3551C132.246 19.3551 131.951 19.4264 131.689 19.5689C131.43 19.7081 131.227 19.902 131.077 20.1506C130.928 20.3991 130.854 20.6858 130.854 21.0107V25.5H129.054ZM139.388 17.8636V19.2557H134.998V17.8636H139.388ZM136.082 16.0341H137.882V23.2031C137.882 23.4451 137.918 23.6307 137.991 23.7599C138.067 23.8859 138.167 23.9721 138.289 24.0185C138.412 24.0649 138.548 24.0881 138.697 24.0881C138.81 24.0881 138.912 24.0798 139.005 24.0632C139.101 24.0466 139.174 24.0317 139.224 24.0185L139.527 25.4254C139.431 25.4586 139.294 25.495 139.115 25.5348C138.939 25.5746 138.724 25.5978 138.468 25.6044C138.018 25.6177 137.612 25.5497 137.25 25.4006C136.889 25.2481 136.602 25.0128 136.39 24.6946C136.181 24.3764 136.079 23.9787 136.082 23.5014V16.0341ZM145.486 25.5V17.8636H147.286V25.5H145.486ZM146.391 16.7798C146.106 16.7798 145.86 16.6854 145.655 16.4964C145.449 16.3042 145.347 16.0739 145.347 15.8054C145.347 15.5336 145.449 15.3033 145.655 15.1143C145.86 14.9221 146.106 14.826 146.391 14.826C146.679 14.826 146.924 14.9221 147.127 15.1143C147.332 15.3033 147.435 15.5336 147.435 15.8054C147.435 16.0739 147.332 16.3042 147.127 16.4964C146.924 16.6854 146.679 16.7798 146.391 16.7798ZM151.496 21.0256V25.5H149.696V17.8636H151.416V19.1612H151.506C151.682 18.7337 151.962 18.3939 152.346 18.142C152.734 17.8902 153.213 17.7642 153.783 17.7642C154.31 17.7642 154.769 17.8769 155.16 18.1023C155.554 18.3277 155.859 18.6541 156.075 19.0817C156.294 19.5092 156.401 20.0279 156.398 20.6378V25.5H154.598V20.9162C154.598 20.4058 154.466 20.0064 154.201 19.718C153.939 19.4297 153.576 19.2855 153.112 19.2855C152.797 19.2855 152.517 19.3551 152.272 19.4943C152.03 19.6302 151.839 19.8274 151.7 20.0859C151.564 20.3445 151.496 20.6577 151.496 21.0256ZM166.633 17.8636V19.2557H162.243V17.8636H166.633ZM163.327 16.0341H165.127V23.2031C165.127 23.4451 165.163 23.6307 165.236 23.7599C165.313 23.8859 165.412 23.9721 165.535 24.0185C165.657 24.0649 165.793 24.0881 165.942 24.0881C166.055 24.0881 166.158 24.0798 166.251 24.0632C166.347 24.0466 166.42 24.0317 166.469 24.0185L166.773 25.4254C166.676 25.4586 166.539 25.495 166.36 25.5348C166.184 25.5746 165.969 25.5978 165.714 25.6044C165.263 25.6177 164.857 25.5497 164.496 25.4006C164.134 25.2481 163.848 25.0128 163.636 24.6946C163.427 24.3764 163.324 23.9787 163.327 23.5014V16.0341ZM171.997 25.6491C171.232 25.6491 170.57 25.4901 170.014 25.1719C169.46 24.8504 169.034 24.3963 168.736 23.8097C168.438 23.2197 168.288 22.5253 168.288 21.7266C168.288 20.9411 168.438 20.2517 168.736 19.6584C169.037 19.0618 169.458 18.5978 169.999 18.2663C170.539 17.9316 171.174 17.7642 171.903 17.7642C172.373 17.7642 172.818 17.8404 173.235 17.9929C173.656 18.142 174.027 18.3741 174.349 18.6889C174.674 19.0038 174.929 19.4048 175.114 19.892C175.3 20.3759 175.393 20.9527 175.393 21.6222V22.174H169.134V20.9609H173.668C173.664 20.6162 173.59 20.3097 173.444 20.0412C173.298 19.7694 173.094 19.5556 172.832 19.3999C172.574 19.2441 172.272 19.1662 171.928 19.1662C171.56 19.1662 171.237 19.2557 170.958 19.4347C170.68 19.6103 170.463 19.8423 170.307 20.1307C170.154 20.4157 170.077 20.7289 170.073 21.0703V22.1293C170.073 22.5734 170.154 22.9545 170.317 23.2727C170.479 23.5876 170.706 23.8295 170.998 23.9986C171.29 24.1643 171.631 24.2472 172.022 24.2472C172.284 24.2472 172.521 24.2107 172.733 24.1378C172.945 24.0616 173.129 23.9505 173.285 23.8047C173.441 23.6589 173.558 23.4782 173.638 23.2628L175.318 23.4517C175.212 23.8958 175.01 24.2836 174.712 24.6151C174.417 24.9432 174.039 25.1984 173.578 25.3807C173.117 25.5597 172.59 25.6491 171.997 25.6491ZM179.275 15.3182V25.5H177.475V15.3182H179.275ZM185.066 25.6491C184.301 25.6491 183.64 25.4901 183.083 25.1719C182.529 24.8504 182.103 24.3963 181.805 23.8097C181.507 23.2197 181.358 22.5253 181.358 21.7266C181.358 20.9411 181.507 20.2517 181.805 19.6584C182.107 19.0618 182.528 18.5978 183.068 18.2663C183.608 17.9316 184.243 17.7642 184.972 17.7642C185.443 17.7642 185.887 17.8404 186.304 17.9929C186.725 18.142 187.096 18.3741 187.418 18.6889C187.743 19.0038 187.998 19.4048 188.184 19.892C188.369 20.3759 188.462 20.9527 188.462 21.6222V22.174H182.203V20.9609H186.737C186.734 20.6162 186.659 20.3097 186.513 20.0412C186.367 19.7694 186.163 19.5556 185.902 19.3999C185.643 19.2441 185.342 19.1662 184.997 19.1662C184.629 19.1662 184.306 19.2557 184.027 19.4347C183.749 19.6103 183.532 19.8423 183.376 20.1307C183.224 20.4157 183.146 20.7289 183.142 21.0703V22.1293C183.142 22.5734 183.224 22.9545 183.386 23.2727C183.548 23.5876 183.775 23.8295 184.067 23.9986C184.359 24.1643 184.7 24.2472 185.091 24.2472C185.353 24.2472 185.59 24.2107 185.802 24.1378C186.014 24.0616 186.198 23.9505 186.354 23.8047C186.51 23.6589 186.627 23.4782 186.707 23.2628L188.387 23.4517C188.281 23.8958 188.079 24.2836 187.781 24.6151C187.486 24.9432 187.108 25.1984 186.647 25.3807C186.187 25.5597 185.66 25.6491 185.066 25.6491ZM193.866 28.5227C193.219 28.5227 192.664 28.4349 192.2 28.2592C191.736 28.0869 191.363 27.8549 191.081 27.5632C190.8 27.2715 190.604 26.9484 190.495 26.5938L192.116 26.201C192.188 26.3501 192.295 26.4976 192.434 26.6435C192.573 26.7926 192.76 26.9152 192.996 27.0114C193.234 27.1108 193.534 27.1605 193.895 27.1605C194.406 27.1605 194.828 27.0362 195.163 26.7876C195.498 26.5424 195.665 26.138 195.665 25.5746V24.1278H195.576C195.483 24.3134 195.347 24.504 195.168 24.6996C194.992 24.8951 194.759 25.0592 194.467 25.1918C194.179 25.3243 193.816 25.3906 193.378 25.3906C192.792 25.3906 192.26 25.2531 191.782 24.978C191.309 24.6996 190.931 24.2853 190.649 23.7351C190.371 23.1816 190.231 22.4889 190.231 21.657C190.231 20.8184 190.371 20.1108 190.649 19.5341C190.931 18.9541 191.31 18.5149 191.787 18.2166C192.265 17.915 192.797 17.7642 193.383 17.7642C193.831 17.7642 194.199 17.8404 194.487 17.9929C194.779 18.142 195.011 18.3227 195.183 18.5348C195.355 18.7436 195.486 18.9408 195.576 19.1264H195.675V17.8636H197.45V25.6243C197.45 26.2772 197.294 26.8175 196.983 27.245C196.671 27.6726 196.245 27.9924 195.705 28.2045C195.165 28.4167 194.552 28.5227 193.866 28.5227ZM193.88 23.9787C194.262 23.9787 194.586 23.8859 194.855 23.7003C195.123 23.5147 195.327 23.2479 195.466 22.8999C195.606 22.5518 195.675 22.1342 195.675 21.647C195.675 21.1664 195.606 20.7455 195.466 20.3842C195.331 20.023 195.128 19.7429 194.86 19.544C194.595 19.3419 194.268 19.2408 193.88 19.2408C193.479 19.2408 193.145 19.3452 192.876 19.554C192.608 19.7628 192.406 20.0495 192.27 20.4141C192.134 20.7753 192.066 21.1863 192.066 21.647C192.066 22.1143 192.134 22.5237 192.27 22.875C192.409 23.223 192.613 23.4948 192.881 23.6903C193.153 23.8826 193.486 23.9787 193.88 23.9787ZM199.855 25.5V17.8636H201.6V19.1364H201.679C201.818 18.6955 202.057 18.3558 202.395 18.1172C202.736 17.8752 203.126 17.7543 203.563 17.7543C203.663 17.7543 203.774 17.7592 203.896 17.7692C204.022 17.7758 204.127 17.7874 204.21 17.804V19.4595C204.133 19.433 204.012 19.4098 203.847 19.3899C203.684 19.3667 203.527 19.3551 203.374 19.3551C203.046 19.3551 202.751 19.4264 202.489 19.5689C202.231 19.7081 202.027 19.902 201.878 20.1506C201.729 20.3991 201.654 20.6858 201.654 21.0107V25.5H199.855ZM208.026 25.6541C207.542 25.6541 207.106 25.5679 206.719 25.3956C206.334 25.2199 206.029 24.9614 205.804 24.62C205.582 24.2786 205.471 23.8577 205.471 23.3572C205.471 22.9264 205.55 22.5701 205.709 22.2884C205.868 22.0066 206.085 21.7812 206.361 21.6122C206.636 21.4432 206.946 21.3156 207.29 21.2294C207.638 21.1399 207.998 21.0753 208.369 21.0355C208.817 20.9891 209.179 20.9477 209.458 20.9112C209.736 20.8714 209.938 20.8118 210.064 20.7322C210.194 20.6494 210.258 20.5218 210.258 20.3494V20.3196C210.258 19.9451 210.147 19.6551 209.925 19.4496C209.703 19.2441 209.383 19.1413 208.966 19.1413C208.525 19.1413 208.175 19.2375 207.917 19.4297C207.661 19.6219 207.489 19.849 207.4 20.1108L205.719 19.8722C205.852 19.4081 206.071 19.0204 206.375 18.7088C206.68 18.3939 207.053 18.1586 207.494 18.0028C207.935 17.8438 208.422 17.7642 208.956 17.7642C209.324 17.7642 209.69 17.8073 210.054 17.8935C210.419 17.9796 210.752 18.1222 211.054 18.321C211.355 18.5166 211.597 18.7834 211.78 19.1214C211.965 19.4595 212.058 19.8821 212.058 20.3892V25.5H210.328V24.451H210.268C210.159 24.6631 210.005 24.862 209.806 25.0476C209.61 25.2299 209.363 25.3774 209.065 25.4901C208.77 25.5994 208.424 25.6541 208.026 25.6541ZM208.493 24.3317C208.855 24.3317 209.168 24.2604 209.433 24.1179C209.698 23.9721 209.902 23.7798 210.045 23.5412C210.19 23.3026 210.263 23.0424 210.263 22.7607V21.8608C210.207 21.9072 210.111 21.9503 209.975 21.9901C209.842 22.0298 209.693 22.0646 209.527 22.0945C209.362 22.1243 209.198 22.1508 209.035 22.174C208.873 22.1972 208.732 22.2171 208.613 22.2337C208.344 22.2701 208.104 22.3298 207.892 22.4126C207.68 22.4955 207.512 22.6115 207.39 22.7607C207.267 22.9065 207.206 23.0954 207.206 23.3274C207.206 23.6589 207.327 23.9091 207.569 24.0781C207.811 24.2472 208.119 24.3317 208.493 24.3317ZM214.428 25.5V17.8636H216.148V19.1612H216.237C216.396 18.7237 216.66 18.3823 217.028 18.1371C217.396 17.8885 217.835 17.7642 218.345 17.7642C218.862 17.7642 219.298 17.8902 219.653 18.142C220.011 18.3906 220.263 18.7304 220.409 19.1612H220.488C220.657 18.737 220.942 18.3989 221.343 18.147C221.748 17.8918 222.226 17.7642 222.78 17.7642C223.483 17.7642 224.056 17.9863 224.5 18.4304C224.944 18.8745 225.166 19.5225 225.166 20.3743V25.5H223.362V20.6527C223.362 20.1787 223.236 19.8324 222.984 19.6136C222.732 19.3916 222.424 19.2805 222.059 19.2805C221.625 19.2805 221.285 19.4164 221.04 19.6882C220.798 19.9567 220.677 20.3063 220.677 20.7372V25.5H218.912V20.5781C218.912 20.1837 218.793 19.8688 218.554 19.6335C218.319 19.3982 218.011 19.2805 217.629 19.2805C217.371 19.2805 217.136 19.3468 216.923 19.4794C216.711 19.6087 216.542 19.7926 216.416 20.0312C216.29 20.2666 216.227 20.5417 216.227 20.8565V25.5H214.428Z" fill="white"/>
</svg>
