<svg width="150" height="40" viewBox="0 0 150 40" fill="none" xmlns="http://www.w3.org/2000/svg">
<rect width="150" height="40" rx="20" fill="white"/>
<rect width="150" height="40" rx="20" fill="#001A95" fill-opacity="0.5"/>
<rect x="0.5" y="0.5" width="149" height="39" rx="19.5" stroke="white" stroke-opacity="0.06"/>
<path fill-rule="evenodd" clip-rule="evenodd" d="M35.769 20.5806C35.7908 18.8841 36.6802 17.3171 38.1256 16.4285C37.2096 15.1204 35.7305 14.3208 34.1344 14.2709C32.4552 14.0946 30.8272 15.2757 29.9715 15.2757C29.0992 15.2757 27.7817 14.2884 26.363 14.3176C24.4963 14.3779 22.7982 15.4134 21.8901 17.0454C19.9561 20.3938 21.3987 25.3149 23.2513 28.0215C24.1782 29.3469 25.2615 30.8273 26.6789 30.7748C28.066 30.7173 28.584 29.8903 30.2583 29.8903C31.9171 29.8903 32.4031 30.7748 33.8493 30.7414C35.3377 30.7173 36.2754 29.4102 37.1698 28.0723C37.8358 27.1279 38.3483 26.0842 38.6882 24.9798C36.9205 24.2321 35.7711 22.5 35.769 20.5806Z" fill="white"/>
<path fill-rule="evenodd" clip-rule="evenodd" d="M33.0376 12.4906C33.8491 11.5164 34.2489 10.2642 34.1521 9C32.9123 9.13022 31.767 9.72278 30.9445 10.6596C30.1323 11.5839 29.7209 12.7932 29.8008 14.021C31.0573 14.0339 32.2502 13.4699 33.0376 12.4906Z" fill="white"/>
<path d="M55.22 10.009C55.124 9.553 54.911 9.211 54.581 8.983C54.257 8.755 53.87 8.641 53.42 8.641C53.036 8.641 52.706 8.713 52.43 8.857C52.16 9.001 51.935 9.196 51.755 9.442C51.581 9.682 51.452 9.958 51.368 10.27C51.284 10.582 51.242 10.906 51.242 11.242C51.242 11.608 51.284 11.956 51.368 12.286C51.452 12.61 51.581 12.895 51.755 13.141C51.935 13.381 52.163 13.573 52.439 13.717C52.715 13.861 53.045 13.933 53.429 13.933C53.711 13.933 53.96 13.888 54.176 13.798C54.398 13.702 54.587 13.573 54.743 13.411C54.905 13.243 55.031 13.045 55.121 12.817C55.211 12.589 55.265 12.343 55.283 12.079H56.138C56.054 12.889 55.775 13.519 55.301 13.969C54.827 14.419 54.179 14.644 53.357 14.644C52.859 14.644 52.424 14.56 52.052 14.392C51.68 14.218 51.371 13.981 51.125 13.681C50.879 13.381 50.693 13.027 50.567 12.619C50.447 12.211 50.387 11.773 50.387 11.305C50.387 10.837 50.453 10.399 50.585 9.991C50.717 9.577 50.909 9.217 51.161 8.911C51.419 8.605 51.737 8.365 52.115 8.191C52.499 8.011 52.937 7.921 53.429 7.921C53.765 7.921 54.083 7.966 54.383 8.056C54.683 8.146 54.95 8.278 55.184 8.452C55.418 8.626 55.613 8.845 55.769 9.109C55.925 9.367 56.027 9.667 56.075 10.009H55.22ZM57.8091 12.178C57.8091 12.46 57.8451 12.712 57.9171 12.934C57.9951 13.15 58.1001 13.333 58.2321 13.483C58.3641 13.627 58.5171 13.738 58.6911 13.816C58.8711 13.894 59.0601 13.933 59.2581 13.933C59.4561 13.933 59.6421 13.894 59.8161 13.816C59.9961 13.738 60.1521 13.627 60.2841 13.483C60.4161 13.333 60.5181 13.15 60.5901 12.934C60.6681 12.712 60.7071 12.46 60.7071 12.178C60.7071 11.896 60.6681 11.647 60.5901 11.431C60.5181 11.209 60.4161 11.023 60.2841 10.873C60.1521 10.723 59.9961 10.609 59.8161 10.531C59.6421 10.453 59.4561 10.414 59.2581 10.414C59.0601 10.414 58.8711 10.453 58.6911 10.531C58.5171 10.609 58.3641 10.723 58.2321 10.873C58.1001 11.023 57.9951 11.209 57.9171 11.431C57.8451 11.647 57.8091 11.896 57.8091 12.178ZM56.9991 12.178C56.9991 11.836 57.0471 11.518 57.1431 11.224C57.2391 10.924 57.3831 10.666 57.5751 10.45C57.7671 10.228 58.0041 10.054 58.2861 9.928C58.5681 9.802 58.8921 9.739 59.2581 9.739C59.6301 9.739 59.9541 9.802 60.2301 9.928C60.5121 10.054 60.7491 10.228 60.9411 10.45C61.1331 10.666 61.2771 10.924 61.3731 11.224C61.4691 11.518 61.5171 11.836 61.5171 12.178C61.5171 12.52 61.4691 12.838 61.3731 13.132C61.2771 13.426 61.1331 13.684 60.9411 13.906C60.7491 14.122 60.5121 14.293 60.2301 14.419C59.9541 14.539 59.6301 14.599 59.2581 14.599C58.8921 14.599 58.5681 14.539 58.2861 14.419C58.0041 14.293 57.7671 14.122 57.5751 13.906C57.3831 13.684 57.2391 13.426 57.1431 13.132C57.0471 12.838 56.9991 12.52 56.9991 12.178ZM62.5991 9.847H63.3191V10.531H63.3371C63.6851 10.003 64.1861 9.739 64.8401 9.739C65.1281 9.739 65.3891 9.799 65.6231 9.919C65.8571 10.039 66.0221 10.243 66.1181 10.531C66.2741 10.279 66.4781 10.084 66.7301 9.946C66.9881 9.808 67.2701 9.739 67.5761 9.739C67.8101 9.739 68.0201 9.766 68.2061 9.82C68.3981 9.868 68.5601 9.946 68.6921 10.054C68.8301 10.162 68.9351 10.303 69.0071 10.477C69.0851 10.645 69.1241 10.849 69.1241 11.089V14.5H68.3591V11.449C68.3591 11.305 68.3471 11.17 68.3231 11.044C68.2991 10.918 68.2541 10.81 68.1881 10.72C68.1221 10.624 68.0291 10.549 67.9091 10.495C67.7951 10.441 67.6451 10.414 67.4591 10.414C67.0811 10.414 66.7841 10.522 66.5681 10.738C66.3521 10.954 66.2441 11.242 66.2441 11.602V14.5H65.4791V11.449C65.4791 11.299 65.4641 11.161 65.4341 11.035C65.4101 10.909 65.3651 10.801 65.2991 10.711C65.2331 10.615 65.1431 10.543 65.0291 10.495C64.9211 10.441 64.7801 10.414 64.6061 10.414C64.3841 10.414 64.1921 10.459 64.0301 10.549C63.8741 10.639 63.7451 10.747 63.6431 10.873C63.5471 10.999 63.4751 11.131 63.4271 11.269C63.3851 11.401 63.3641 11.512 63.3641 11.602V14.5H62.5991V9.847ZM71.2619 9.01H70.4969V8.074H71.2619V9.01ZM70.4969 9.847H71.2619V14.5H70.4969V9.847ZM72.6271 9.847H73.3471V10.585H73.3651C73.6831 10.021 74.1871 9.739 74.8771 9.739C75.1831 9.739 75.4381 9.781 75.6421 9.865C75.8461 9.949 76.0111 10.066 76.1371 10.216C76.2631 10.366 76.3501 10.546 76.3981 10.756C76.4521 10.96 76.4791 11.188 76.4791 11.44V14.5H75.7141V11.35C75.7141 11.062 75.6301 10.834 75.4621 10.666C75.2941 10.498 75.0631 10.414 74.7691 10.414C74.5351 10.414 74.3311 10.45 74.1571 10.522C73.9891 10.594 73.8481 10.696 73.7341 10.828C73.6201 10.96 73.5331 11.116 73.4731 11.296C73.4191 11.47 73.3921 11.662 73.3921 11.872V14.5H72.6271V9.847ZM81.822 14.104C81.822 14.866 81.648 15.436 81.3 15.814C80.952 16.192 80.406 16.381 79.662 16.381C79.446 16.381 79.224 16.357 78.996 16.309C78.774 16.261 78.57 16.183 78.384 16.075C78.204 15.967 78.054 15.826 77.934 15.652C77.814 15.478 77.748 15.265 77.736 15.013H78.501C78.507 15.151 78.549 15.268 78.627 15.364C78.711 15.46 78.81 15.538 78.924 15.598C79.044 15.658 79.173 15.7 79.311 15.724C79.449 15.754 79.581 15.769 79.707 15.769C79.959 15.769 80.172 15.724 80.346 15.634C80.52 15.55 80.664 15.43 80.778 15.274C80.892 15.124 80.973 14.941 81.021 14.725C81.075 14.509 81.102 14.272 81.102 14.014V13.708H81.084C80.952 13.996 80.751 14.209 80.481 14.347C80.217 14.479 79.935 14.545 79.635 14.545C79.287 14.545 78.984 14.482 78.726 14.356C78.468 14.23 78.252 14.062 78.078 13.852C77.904 13.636 77.772 13.387 77.682 13.105C77.598 12.817 77.556 12.514 77.556 12.196C77.556 11.92 77.592 11.638 77.664 11.35C77.736 11.056 77.856 10.792 78.024 10.558C78.192 10.318 78.414 10.123 78.69 9.973C78.966 9.817 79.305 9.739 79.707 9.739C80.001 9.739 80.271 9.805 80.517 9.937C80.763 10.063 80.955 10.255 81.093 10.513H81.102V9.847H81.822V14.104ZM79.68 13.879C79.932 13.879 80.145 13.828 80.319 13.726C80.499 13.618 80.643 13.48 80.751 13.312C80.859 13.138 80.937 12.943 80.985 12.727C81.039 12.511 81.066 12.295 81.066 12.079C81.066 11.875 81.042 11.674 80.994 11.476C80.946 11.278 80.868 11.101 80.76 10.945C80.658 10.783 80.523 10.654 80.355 10.558C80.187 10.462 79.983 10.414 79.743 10.414C79.497 10.414 79.287 10.462 79.113 10.558C78.939 10.648 78.795 10.771 78.681 10.927C78.573 11.083 78.492 11.263 78.438 11.467C78.39 11.671 78.366 11.884 78.366 12.106C78.366 12.316 78.387 12.526 78.429 12.736C78.471 12.946 78.543 13.138 78.645 13.312C78.747 13.48 78.882 13.618 79.05 13.726C79.218 13.828 79.428 13.879 79.68 13.879ZM86.3089 13.033C86.3149 13.201 86.3539 13.345 86.4259 13.465C86.4979 13.579 86.5909 13.672 86.7049 13.744C86.8249 13.81 86.9569 13.858 87.1009 13.888C87.2509 13.918 87.4039 13.933 87.5599 13.933C87.6799 13.933 87.8059 13.924 87.9379 13.906C88.0699 13.888 88.1899 13.855 88.2979 13.807C88.4119 13.759 88.5049 13.69 88.5769 13.6C88.6489 13.504 88.6849 13.384 88.6849 13.24C88.6849 13.042 88.6099 12.892 88.4599 12.79C88.3099 12.688 88.1209 12.607 87.8929 12.547C87.6709 12.481 87.4279 12.424 87.1639 12.376C86.8999 12.322 86.6539 12.25 86.4259 12.16C86.2039 12.064 86.0179 11.932 85.8679 11.764C85.7179 11.596 85.6429 11.362 85.6429 11.062C85.6429 10.828 85.6939 10.627 85.7959 10.459C85.9039 10.291 86.0389 10.156 86.2009 10.054C86.3689 9.946 86.5549 9.868 86.7589 9.82C86.9689 9.766 87.1759 9.739 87.3799 9.739C87.6439 9.739 87.8869 9.763 88.1089 9.811C88.3309 9.853 88.5259 9.931 88.6939 10.045C88.8679 10.153 89.0059 10.303 89.1079 10.495C89.2099 10.681 89.2699 10.915 89.2879 11.197H88.5229C88.5109 11.047 88.4719 10.924 88.4059 10.828C88.3399 10.726 88.2559 10.645 88.1539 10.585C88.0519 10.525 87.9379 10.483 87.8119 10.459C87.6919 10.429 87.5689 10.414 87.4429 10.414C87.3289 10.414 87.2119 10.423 87.0919 10.441C86.9779 10.459 86.8729 10.492 86.7769 10.54C86.6809 10.582 86.6029 10.642 86.5429 10.72C86.4829 10.792 86.4529 10.888 86.4529 11.008C86.4529 11.14 86.4979 11.251 86.5879 11.341C86.6839 11.425 86.8039 11.497 86.9479 11.557C87.0919 11.611 87.2539 11.659 87.4339 11.701C87.6139 11.737 87.7939 11.776 87.9739 11.818C88.1659 11.86 88.3519 11.911 88.5319 11.971C88.7179 12.031 88.8799 12.112 89.0179 12.214C89.1619 12.31 89.2759 12.433 89.3599 12.583C89.4499 12.733 89.4949 12.919 89.4949 13.141C89.4949 13.423 89.4349 13.657 89.3149 13.843C89.2009 14.029 89.0479 14.179 88.8559 14.293C88.6699 14.407 88.4569 14.485 88.2169 14.527C87.9829 14.575 87.7489 14.599 87.5149 14.599C87.2569 14.599 87.0109 14.572 86.7769 14.518C86.5429 14.464 86.3359 14.377 86.1559 14.257C85.9759 14.131 85.8319 13.969 85.7239 13.771C85.6159 13.567 85.5559 13.321 85.5439 13.033H86.3089ZM91.0789 12.178C91.0789 12.46 91.1149 12.712 91.1869 12.934C91.2649 13.15 91.3699 13.333 91.5019 13.483C91.6339 13.627 91.7869 13.738 91.9609 13.816C92.1409 13.894 92.3299 13.933 92.5279 13.933C92.7259 13.933 92.9119 13.894 93.0859 13.816C93.2659 13.738 93.4219 13.627 93.5539 13.483C93.6859 13.333 93.7879 13.15 93.8599 12.934C93.9379 12.712 93.9769 12.46 93.9769 12.178C93.9769 11.896 93.9379 11.647 93.8599 11.431C93.7879 11.209 93.6859 11.023 93.5539 10.873C93.4219 10.723 93.2659 10.609 93.0859 10.531C92.9119 10.453 92.7259 10.414 92.5279 10.414C92.3299 10.414 92.1409 10.453 91.9609 10.531C91.7869 10.609 91.6339 10.723 91.5019 10.873C91.3699 11.023 91.2649 11.209 91.1869 11.431C91.1149 11.647 91.0789 11.896 91.0789 12.178ZM90.2689 12.178C90.2689 11.836 90.3169 11.518 90.4129 11.224C90.5089 10.924 90.6529 10.666 90.8449 10.45C91.0369 10.228 91.2739 10.054 91.5559 9.928C91.8379 9.802 92.1619 9.739 92.5279 9.739C92.8999 9.739 93.2239 9.802 93.4999 9.928C93.7819 10.054 94.0189 10.228 94.2109 10.45C94.4029 10.666 94.5469 10.924 94.6429 11.224C94.7389 11.518 94.7869 11.836 94.7869 12.178C94.7869 12.52 94.7389 12.838 94.6429 13.132C94.5469 13.426 94.4029 13.684 94.2109 13.906C94.0189 14.122 93.7819 14.293 93.4999 14.419C93.2239 14.539 92.8999 14.599 92.5279 14.599C92.1619 14.599 91.8379 14.539 91.5559 14.419C91.2739 14.293 91.0369 14.122 90.8449 13.906C90.6529 13.684 90.5089 13.426 90.4129 13.132C90.3169 12.838 90.2689 12.52 90.2689 12.178ZM96.4269 12.178C96.4269 12.46 96.4629 12.712 96.5349 12.934C96.6129 13.15 96.7179 13.333 96.8499 13.483C96.9819 13.627 97.1349 13.738 97.3089 13.816C97.4889 13.894 97.6779 13.933 97.8759 13.933C98.0739 13.933 98.2599 13.894 98.4339 13.816C98.6139 13.738 98.7699 13.627 98.9019 13.483C99.0339 13.333 99.1359 13.15 99.2079 12.934C99.2859 12.712 99.3249 12.46 99.3249 12.178C99.3249 11.896 99.2859 11.647 99.2079 11.431C99.1359 11.209 99.0339 11.023 98.9019 10.873C98.7699 10.723 98.6139 10.609 98.4339 10.531C98.2599 10.453 98.0739 10.414 97.8759 10.414C97.6779 10.414 97.4889 10.453 97.3089 10.531C97.1349 10.609 96.9819 10.723 96.8499 10.873C96.7179 11.023 96.6129 11.209 96.5349 11.431C96.4629 11.647 96.4269 11.896 96.4269 12.178ZM95.6169 12.178C95.6169 11.836 95.6649 11.518 95.7609 11.224C95.8569 10.924 96.0009 10.666 96.1929 10.45C96.3849 10.228 96.6219 10.054 96.9039 9.928C97.1859 9.802 97.5099 9.739 97.8759 9.739C98.2479 9.739 98.5719 9.802 98.8479 9.928C99.1299 10.054 99.3669 10.228 99.5589 10.45C99.7509 10.666 99.8949 10.924 99.9909 11.224C100.087 11.518 100.135 11.836 100.135 12.178C100.135 12.52 100.087 12.838 99.9909 13.132C99.8949 13.426 99.7509 13.684 99.5589 13.906C99.3669 14.122 99.1299 14.293 98.8479 14.419C98.5719 14.539 98.2479 14.599 97.8759 14.599C97.5099 14.599 97.1859 14.539 96.9039 14.419C96.6219 14.293 96.3849 14.122 96.1929 13.906C96.0009 13.684 95.8569 13.426 95.7609 13.132C95.6649 12.838 95.6169 12.52 95.6169 12.178ZM101.217 9.847H101.937V10.585H101.955C102.273 10.021 102.777 9.739 103.467 9.739C103.773 9.739 104.028 9.781 104.232 9.865C104.436 9.949 104.601 10.066 104.727 10.216C104.853 10.366 104.94 10.546 104.988 10.756C105.042 10.96 105.069 11.188 105.069 11.44V14.5H104.304V11.35C104.304 11.062 104.22 10.834 104.052 10.666C103.884 10.498 103.653 10.414 103.359 10.414C103.125 10.414 102.921 10.45 102.747 10.522C102.579 10.594 102.438 10.696 102.324 10.828C102.21 10.96 102.123 11.116 102.063 11.296C102.009 11.47 101.982 11.662 101.982 11.872V14.5H101.217V9.847Z" fill="white"/>
<path d="M66.9199 21.9766C69.2177 21.9766 70.7324 23.793 70.7324 26.5987C70.7324 29.4122 69.2266 31.2198 66.9541 31.2198C65.7795 31.2812 64.6731 30.666 64.1055 29.6358H64.0625V34.1202H62.2041V22.0713H64.0029V23.5772H64.0371C64.6299 22.5534 65.7375 21.9385 66.9199 21.9766ZM76.8847 21.9766C79.1826 21.9766 80.6973 23.793 80.6973 26.5987C80.6973 29.4122 79.1914 31.2198 76.9189 31.2198C75.7443 31.2812 74.6379 30.666 74.0703 29.6358H74.0273V34.1202H72.1689V22.0713H73.9677V23.5772H74.0019C74.5947 22.5534 75.7023 21.9385 76.8847 21.9766ZM90.2266 18.5C92.8506 18.5 94.6494 19.9717 94.71 22.1143H92.834C92.7217 20.875 91.6972 20.127 90.2002 20.127C88.7031 20.127 87.6787 20.8838 87.6787 21.9854C87.6787 22.8633 88.333 23.3799 89.9336 23.7754L91.3017 24.1113C93.8496 24.7138 94.9082 25.7373 94.9082 27.5537C94.9082 29.8769 93.0576 31.332 90.1142 31.332C87.3603 31.332 85.501 29.9111 85.3808 27.665L87.2832 27.6651C87.4209 28.8965 88.6172 29.7051 90.2519 29.7051C91.8184 29.7051 92.9453 28.8965 92.9453 27.7861C92.9453 26.8223 92.2656 26.2451 90.6562 25.8496L89.0469 25.4619C86.7666 24.9111 85.708 23.8447 85.708 22.1143C85.708 19.9717 87.5752 18.5 90.2266 18.5ZM105.932 21.96C108.557 21.96 110.227 23.75 110.227 26.5987C110.227 29.4551 108.565 31.2374 105.932 31.2374C103.299 31.2374 101.638 29.4551 101.638 26.5987C101.638 23.7501 103.315 21.96 105.932 21.96ZM120.98 21.96C123.485 21.96 125.061 23.6807 125.061 26.4258V27.0625H118.666V27.1749C118.606 27.8489 118.839 28.5161 119.305 29.0067C119.771 29.4974 120.425 29.7642 121.102 29.7393C122.003 29.8238 122.854 29.3059 123.192 28.4659L124.957 28.4659C124.707 30.1094 123.106 31.2374 121.059 31.2374C118.425 31.2374 116.79 29.4727 116.79 26.6416C116.79 23.8018 118.434 21.96 120.98 21.96ZM98.9189 19.9288V22.0713H100.641V23.543H98.9189V28.5342C98.9189 29.3096 99.2637 29.6709 100.021 29.6709C100.225 29.6674 100.429 29.653 100.632 29.6279V31.0908C100.292 31.1544 99.9457 31.1832 99.5996 31.1768C97.7666 31.1768 97.0518 30.4883 97.0518 28.7324V23.543H95.7354V22.0713H97.0517V19.9288H98.9189ZM56.5664 18.7071L61.0498 31.1251H59.0107L57.875 27.7686H53.1416L52.0049 31.1251H50L54.4834 18.7071H56.5664ZM115.752 21.9766C115.966 21.9759 116.18 21.9991 116.389 22.0459V23.7842C116.118 23.7016 115.836 23.6637 115.554 23.6719C115.007 23.6498 114.479 23.8675 114.106 24.268C113.734 24.6684 113.555 25.2116 113.617 25.7549V31.125H111.759V22.0713H113.531V23.6123H113.574C113.821 22.6203 114.73 21.9376 115.752 21.9766ZM105.932 23.4913C104.426 23.4913 103.531 24.6534 103.531 26.5987C103.531 28.5606 104.426 29.7051 105.932 29.7051C107.438 29.7051 108.333 28.5606 108.333 26.5987C108.333 24.6446 107.438 23.4913 105.932 23.4913ZM66.4297 23.5606C65.0098 23.5606 64.0547 24.7911 64.0547 26.5987C64.0547 28.4229 65.0098 29.6446 66.4297 29.6446C67.875 29.6446 68.8223 28.4483 68.8223 26.5987C68.8223 24.7657 67.875 23.5606 66.4297 23.5606ZM76.3945 23.5606C74.9746 23.5606 74.0195 24.7911 74.0195 26.5987C74.0195 28.4229 74.9746 29.6446 76.3945 29.6446C77.8398 29.6446 78.7871 28.4483 78.7871 26.5987C78.7871 24.7657 77.8398 23.5606 76.3945 23.5606ZM55.5342 20.7725H55.4825L53.6318 26.2198H57.3838L55.5342 20.7725ZM120.98 23.4659C120.369 23.4622 119.782 23.7029 119.349 24.1344C118.916 24.5659 118.673 25.1525 118.675 25.7637H123.201C123.235 25.1581 123.014 24.5658 122.593 24.1296C122.171 23.6934 121.587 23.4528 120.98 23.4659Z" fill="white"/>
</svg>
