<svg width="150" height="40" viewBox="0 0 150 40" fill="none" xmlns="http://www.w3.org/2000/svg">
<rect width="150" height="40" rx="20" fill="white"/>
<rect width="150" height="40" rx="20" fill="#001A95" fill-opacity="0.5"/>
<rect x="0.5" y="0.5" width="149" height="39" rx="19.5" stroke="white" stroke-opacity="0.06"/>
<path fill-rule="evenodd" clip-rule="evenodd" d="M19.4351 7.5471C19.1441 7.8551 18.9731 8.3321 18.9731 8.9511V31.0491C18.9731 31.6681 19.1441 32.1451 19.4351 32.4531L19.5091 32.5251L31.8881 20.1461V19.8541L19.5091 7.4751L19.4351 7.5471Z" fill="#00D7FE"/>
<mask id="mask0_766_900" style="mask-type:alpha" maskUnits="userSpaceOnUse" x="31" y="15" width="12" height="10">
<path d="M36.0132 24.2741L31.8882 20.1461V19.8541L36.0152 15.7271L40.9972 18.5571C42.3932 19.3511 42.3932 20.6491 40.9972 21.4421L36.1082 24.2201L36.0132 24.2741Z" fill="white"/>
</mask>
<g mask="url(#mask0_766_900)">
<path fill-rule="evenodd" clip-rule="evenodd" d="M36.0132 24.2741L31.8882 20.1461V19.8541L36.0152 15.7271L40.9972 18.5571C42.3932 19.3511 42.3932 20.6491 40.9972 21.4421L36.1082 24.2201L36.0132 24.2741Z" fill="url(#paint0_linear_766_900)"/>
</g>
<mask id="mask1_766_900" style="mask-type:alpha" maskUnits="userSpaceOnUse" x="19" y="20" width="18" height="13">
<path d="M36.1081 24.22L31.8881 20L19.4351 32.453C19.8961 32.94 20.6561 33 21.5121 32.514L36.1081 24.22Z" fill="white"/>
</mask>
<g mask="url(#mask1_766_900)">
<path fill-rule="evenodd" clip-rule="evenodd" d="M36.1081 24.22L31.8881 20L19.4351 32.453C19.8961 32.94 20.6561 33 21.5121 32.514L36.1081 24.22Z" fill="url(#paint1_linear_766_900)"/>
</g>
<mask id="mask2_766_900" style="mask-type:alpha" maskUnits="userSpaceOnUse" x="19" y="7" width="18" height="13">
<path d="M36.1081 15.7802L21.5121 7.48617C20.6561 7.00017 19.8961 7.06017 19.4351 7.54717L31.8881 20.0002L36.1081 15.7802Z" fill="white"/>
</mask>
<g mask="url(#mask2_766_900)">
<path fill-rule="evenodd" clip-rule="evenodd" d="M36.1081 15.7802L21.5121 7.48617C20.6561 7.00017 19.8961 7.06017 19.4351 7.54717L31.8881 20.0002L36.1081 15.7802Z" fill="url(#paint2_linear_766_900)"/>
</g>
<path fill-rule="evenodd" clip-rule="evenodd" d="M113.894 30.953H115.76V18.452H113.894V30.953ZM130.701 22.955L128.562 28.375H128.498L126.278 22.955H124.268L127.597 30.53L125.699 34.744H127.646L132.776 22.955H130.701ZM120.119 29.533C119.507 29.533 118.655 29.228 118.655 28.472C118.655 27.507 119.717 27.137 120.633 27.137C121.454 27.137 121.839 27.314 122.338 27.555C122.193 28.713 121.196 29.533 120.119 29.533ZM120.344 22.682C118.993 22.682 117.594 23.277 117.015 24.596L118.671 25.287C119.025 24.596 119.684 24.37 120.376 24.37C121.341 24.37 122.322 24.949 122.338 25.979V26.107C122 25.914 121.277 25.625 120.392 25.625C118.607 25.625 116.789 26.606 116.789 28.439C116.789 30.112 118.253 31.19 119.893 31.19C121.148 31.19 121.839 30.627 122.274 29.967H122.338V30.932H124.139V26.14C124.139 23.92 122.483 22.682 120.344 22.682ZM108.812 24.477H106.158V20.192H108.812C110.207 20.192 110.999 21.347 110.999 22.334C110.999 23.303 110.207 24.477 108.812 24.477ZM108.764 18.452H104.293V30.953H106.158V26.217H108.764C110.832 26.217 112.865 24.719 112.865 22.334C112.865 19.949 110.832 18.452 108.764 18.452ZM84.383 29.535C83.094 29.535 82.015 28.456 82.015 26.974C82.015 25.476 83.094 24.38 84.383 24.38C85.656 24.38 86.654 25.476 86.654 26.974C86.654 28.456 85.656 29.535 84.383 29.535ZM86.525 23.655H86.461C86.042 23.156 85.237 22.705 84.222 22.705C82.095 22.705 80.146 24.573 80.146 26.974C80.146 29.358 82.095 31.211 84.222 31.211C85.237 31.211 86.042 30.76 86.461 30.244H86.525V30.856C86.525 32.484 85.656 33.354 84.254 33.354C83.11 33.354 82.401 32.532 82.111 31.839L80.484 32.516C80.951 33.644 82.192 35.029 84.254 35.029C86.445 35.029 88.298 33.74 88.298 30.599V22.962H86.525V23.655ZM89.587 30.953H91.456V18.451H89.587V30.953ZM94.21 26.829C94.162 25.186 95.483 24.348 96.433 24.348C97.175 24.348 97.803 24.718 98.012 25.25L94.21 26.829ZM100.01 25.411C99.656 24.461 98.576 22.705 96.369 22.705C94.178 22.705 92.358 24.428 92.358 26.958C92.358 29.342 94.162 31.211 96.578 31.211C98.528 31.211 99.656 30.019 100.123 29.326L98.673 28.359C98.19 29.068 97.529 29.535 96.578 29.535C95.628 29.535 94.951 29.1 94.516 28.247L100.203 25.895L100.01 25.411ZM54.702 24.01V25.814H59.019C58.89 26.829 58.552 27.57 58.037 28.086C57.408 28.714 56.425 29.406 54.702 29.406C52.044 29.406 49.965 27.264 49.965 24.606C49.965 21.947 52.044 19.805 54.702 19.805C56.136 19.805 57.183 20.369 57.956 21.094L59.229 19.821C58.149 18.79 56.716 18 54.702 18C51.061 18 48 20.965 48 24.606C48 28.247 51.061 31.211 54.702 31.211C56.667 31.211 58.149 30.567 59.309 29.358C60.501 28.166 60.872 26.491 60.872 25.137C60.872 24.718 60.84 24.332 60.775 24.01H54.702ZM65.781 29.535C64.492 29.535 63.38 28.472 63.38 26.958C63.38 25.427 64.492 24.38 65.781 24.38C67.069 24.38 68.181 25.427 68.181 26.958C68.181 28.472 67.069 29.535 65.781 29.535ZM65.781 22.705C63.428 22.705 61.511 24.493 61.511 26.958C61.511 29.406 63.428 31.211 65.781 31.211C68.133 31.211 70.05 29.406 70.05 26.958C70.05 24.493 68.133 22.705 65.781 22.705ZM75.094 29.535C73.805 29.535 72.693 28.472 72.693 26.958C72.693 25.427 73.805 24.38 75.094 24.38C76.383 24.38 77.494 25.427 77.494 26.958C77.494 28.472 76.383 29.535 75.094 29.535ZM75.094 22.705C72.742 22.705 70.825 24.493 70.825 26.958C70.825 29.406 72.742 31.211 75.094 31.211C77.446 31.211 79.363 29.406 79.363 26.958C79.363 24.493 77.446 22.705 75.094 22.705Z" fill="#FFFFFE"/>
<path d="M53.22 9.509C53.124 9.053 52.911 8.711 52.581 8.483C52.257 8.255 51.87 8.141 51.42 8.141C51.036 8.141 50.706 8.213 50.43 8.357C50.16 8.501 49.935 8.696 49.755 8.942C49.581 9.182 49.452 9.458 49.368 9.77C49.284 10.082 49.242 10.406 49.242 10.742C49.242 11.108 49.284 11.456 49.368 11.786C49.452 12.11 49.581 12.395 49.755 12.641C49.935 12.881 50.163 13.073 50.439 13.217C50.715 13.361 51.045 13.433 51.429 13.433C51.711 13.433 51.96 13.388 52.176 13.298C52.398 13.202 52.587 13.073 52.743 12.911C52.905 12.743 53.031 12.545 53.121 12.317C53.211 12.089 53.265 11.843 53.283 11.579H54.138C54.054 12.389 53.775 13.019 53.301 13.469C52.827 13.919 52.179 14.144 51.357 14.144C50.859 14.144 50.424 14.06 50.052 13.892C49.68 13.718 49.371 13.481 49.125 13.181C48.879 12.881 48.693 12.527 48.567 12.119C48.447 11.711 48.387 11.273 48.387 10.805C48.387 10.337 48.453 9.899 48.585 9.491C48.717 9.077 48.909 8.717 49.161 8.411C49.419 8.105 49.737 7.865 50.115 7.691C50.499 7.511 50.937 7.421 51.429 7.421C51.765 7.421 52.083 7.466 52.383 7.556C52.683 7.646 52.95 7.778 53.184 7.952C53.418 8.126 53.613 8.345 53.769 8.609C53.925 8.867 54.027 9.167 54.075 9.509H53.22ZM55.3591 11.678C55.3591 11.96 55.3951 12.212 55.4671 12.434C55.5451 12.65 55.6501 12.833 55.7821 12.983C55.9141 13.127 56.0671 13.238 56.2411 13.316C56.4211 13.394 56.6101 13.433 56.8081 13.433C57.0061 13.433 57.1921 13.394 57.3661 13.316C57.5461 13.238 57.7021 13.127 57.8341 12.983C57.9661 12.833 58.0681 12.65 58.1401 12.434C58.2181 12.212 58.2571 11.96 58.2571 11.678C58.2571 11.396 58.2181 11.147 58.1401 10.931C58.0681 10.709 57.9661 10.523 57.8341 10.373C57.7021 10.223 57.5461 10.109 57.3661 10.031C57.1921 9.953 57.0061 9.914 56.8081 9.914C56.6101 9.914 56.4211 9.953 56.2411 10.031C56.0671 10.109 55.9141 10.223 55.7821 10.373C55.6501 10.523 55.5451 10.709 55.4671 10.931C55.3951 11.147 55.3591 11.396 55.3591 11.678ZM54.5491 11.678C54.5491 11.336 54.5971 11.018 54.6931 10.724C54.7891 10.424 54.9331 10.166 55.1251 9.95C55.3171 9.728 55.5541 9.554 55.8361 9.428C56.1181 9.302 56.4421 9.239 56.8081 9.239C57.1801 9.239 57.5041 9.302 57.7801 9.428C58.0621 9.554 58.2991 9.728 58.4911 9.95C58.6831 10.166 58.8271 10.424 58.9231 10.724C59.0191 11.018 59.0671 11.336 59.0671 11.678C59.0671 12.02 59.0191 12.338 58.9231 12.632C58.8271 12.926 58.6831 13.184 58.4911 13.406C58.2991 13.622 58.0621 13.793 57.7801 13.919C57.5041 14.039 57.1801 14.099 56.8081 14.099C56.4421 14.099 56.1181 14.039 55.8361 13.919C55.5541 13.793 55.3171 13.622 55.1251 13.406C54.9331 13.184 54.7891 12.926 54.6931 12.632C54.5971 12.338 54.5491 12.02 54.5491 11.678ZM59.6991 9.347H60.4191V10.031H60.4371C60.7851 9.503 61.2861 9.239 61.9401 9.239C62.2281 9.239 62.4891 9.299 62.7231 9.419C62.9571 9.539 63.1221 9.743 63.2181 10.031C63.3741 9.779 63.5781 9.584 63.8301 9.446C64.0881 9.308 64.3701 9.239 64.6761 9.239C64.9101 9.239 65.1201 9.266 65.3061 9.32C65.4981 9.368 65.6601 9.446 65.7921 9.554C65.9301 9.662 66.0351 9.803 66.1071 9.977C66.1851 10.145 66.2241 10.349 66.2241 10.589V14H65.4591V10.949C65.4591 10.805 65.4471 10.67 65.4231 10.544C65.3991 10.418 65.3541 10.31 65.2881 10.22C65.2221 10.124 65.1291 10.049 65.0091 9.995C64.8951 9.941 64.7451 9.914 64.5591 9.914C64.1811 9.914 63.8841 10.022 63.6681 10.238C63.4521 10.454 63.3441 10.742 63.3441 11.102V14H62.5791V10.949C62.5791 10.799 62.5641 10.661 62.5341 10.535C62.5101 10.409 62.4651 10.301 62.3991 10.211C62.3331 10.115 62.2431 10.043 62.1291 9.995C62.0211 9.941 61.8801 9.914 61.7061 9.914C61.4841 9.914 61.2921 9.959 61.1301 10.049C60.9741 10.139 60.8451 10.247 60.7431 10.373C60.6471 10.499 60.5751 10.631 60.5271 10.769C60.4851 10.901 60.4641 11.012 60.4641 11.102V14H59.6991V9.347ZM67.9119 8.51H67.1469V7.574H67.9119V8.51ZM67.1469 9.347H67.9119V14H67.1469V9.347ZM68.8271 9.347H69.5471V10.085H69.5651C69.8831 9.521 70.3871 9.239 71.0771 9.239C71.3831 9.239 71.6381 9.281 71.8421 9.365C72.0461 9.449 72.2111 9.566 72.3371 9.716C72.4631 9.866 72.5501 10.046 72.5981 10.256C72.6521 10.46 72.6791 10.688 72.6791 10.94V14H71.9141V10.85C71.9141 10.562 71.8301 10.334 71.6621 10.166C71.4941 9.998 71.2631 9.914 70.9691 9.914C70.7351 9.914 70.5311 9.95 70.3571 10.022C70.1891 10.094 70.0481 10.196 69.9341 10.328C69.8201 10.46 69.7331 10.616 69.6731 10.796C69.6191 10.97 69.5921 11.162 69.5921 11.372V14H68.8271V9.347ZM77.572 13.604C77.572 14.366 77.398 14.936 77.05 15.314C76.702 15.692 76.156 15.881 75.412 15.881C75.196 15.881 74.974 15.857 74.746 15.809C74.524 15.761 74.32 15.683 74.134 15.575C73.954 15.467 73.804 15.326 73.684 15.152C73.564 14.978 73.498 14.765 73.486 14.513H74.251C74.257 14.651 74.299 14.768 74.377 14.864C74.461 14.96 74.56 15.038 74.674 15.098C74.794 15.158 74.923 15.2 75.061 15.224C75.199 15.254 75.331 15.269 75.457 15.269C75.709 15.269 75.922 15.224 76.096 15.134C76.27 15.05 76.414 14.93 76.528 14.774C76.642 14.624 76.723 14.441 76.771 14.225C76.825 14.009 76.852 13.772 76.852 13.514V13.208H76.834C76.702 13.496 76.501 13.709 76.231 13.847C75.967 13.979 75.685 14.045 75.385 14.045C75.037 14.045 74.734 13.982 74.476 13.856C74.218 13.73 74.002 13.562 73.828 13.352C73.654 13.136 73.522 12.887 73.432 12.605C73.348 12.317 73.306 12.014 73.306 11.696C73.306 11.42 73.342 11.138 73.414 10.85C73.486 10.556 73.606 10.292 73.774 10.058C73.942 9.818 74.164 9.623 74.44 9.473C74.716 9.317 75.055 9.239 75.457 9.239C75.751 9.239 76.021 9.305 76.267 9.437C76.513 9.563 76.705 9.755 76.843 10.013H76.852V9.347H77.572V13.604ZM75.43 13.379C75.682 13.379 75.895 13.328 76.069 13.226C76.249 13.118 76.393 12.98 76.501 12.812C76.609 12.638 76.687 12.443 76.735 12.227C76.789 12.011 76.816 11.795 76.816 11.579C76.816 11.375 76.792 11.174 76.744 10.976C76.696 10.778 76.618 10.601 76.51 10.445C76.408 10.283 76.273 10.154 76.105 10.058C75.937 9.962 75.733 9.914 75.493 9.914C75.247 9.914 75.037 9.962 74.863 10.058C74.689 10.148 74.545 10.271 74.431 10.427C74.323 10.583 74.242 10.763 74.188 10.967C74.14 11.171 74.116 11.384 74.116 11.606C74.116 11.816 74.137 12.026 74.179 12.236C74.221 12.446 74.293 12.638 74.395 12.812C74.497 12.98 74.632 13.118 74.8 13.226C74.968 13.328 75.178 13.379 75.43 13.379ZM81.1589 12.533C81.1649 12.701 81.2039 12.845 81.2759 12.965C81.3479 13.079 81.4409 13.172 81.5549 13.244C81.6749 13.31 81.8069 13.358 81.9509 13.388C82.1009 13.418 82.2539 13.433 82.4099 13.433C82.5299 13.433 82.6559 13.424 82.7879 13.406C82.9199 13.388 83.0399 13.355 83.1479 13.307C83.2619 13.259 83.3549 13.19 83.4269 13.1C83.4989 13.004 83.5349 12.884 83.5349 12.74C83.5349 12.542 83.4599 12.392 83.3099 12.29C83.1599 12.188 82.9709 12.107 82.7429 12.047C82.5209 11.981 82.2779 11.924 82.0139 11.876C81.7499 11.822 81.5039 11.75 81.2759 11.66C81.0539 11.564 80.8679 11.432 80.7179 11.264C80.5679 11.096 80.4929 10.862 80.4929 10.562C80.4929 10.328 80.5439 10.127 80.6459 9.959C80.7539 9.791 80.8889 9.656 81.0509 9.554C81.2189 9.446 81.4049 9.368 81.6089 9.32C81.8189 9.266 82.0259 9.239 82.2299 9.239C82.4939 9.239 82.7369 9.263 82.9589 9.311C83.1809 9.353 83.3759 9.431 83.5439 9.545C83.7179 9.653 83.8559 9.803 83.9579 9.995C84.0599 10.181 84.1199 10.415 84.1379 10.697H83.3729C83.3609 10.547 83.3219 10.424 83.2559 10.328C83.1899 10.226 83.1059 10.145 83.0039 10.085C82.9019 10.025 82.7879 9.983 82.6619 9.959C82.5419 9.929 82.4189 9.914 82.2929 9.914C82.1789 9.914 82.0619 9.923 81.9419 9.941C81.8279 9.959 81.7229 9.992 81.6269 10.04C81.5309 10.082 81.4529 10.142 81.3929 10.22C81.3329 10.292 81.3029 10.388 81.3029 10.508C81.3029 10.64 81.3479 10.751 81.4379 10.841C81.5339 10.925 81.6539 10.997 81.7979 11.057C81.9419 11.111 82.1039 11.159 82.2839 11.201C82.4639 11.237 82.6439 11.276 82.8239 11.318C83.0159 11.36 83.2019 11.411 83.3819 11.471C83.5679 11.531 83.7299 11.612 83.8679 11.714C84.0119 11.81 84.1259 11.933 84.2099 12.083C84.2999 12.233 84.3449 12.419 84.3449 12.641C84.3449 12.923 84.2849 13.157 84.1649 13.343C84.0509 13.529 83.8979 13.679 83.7059 13.793C83.5199 13.907 83.3069 13.985 83.0669 14.027C82.8329 14.075 82.5989 14.099 82.3649 14.099C82.1069 14.099 81.8609 14.072 81.6269 14.018C81.3929 13.964 81.1859 13.877 81.0059 13.757C80.8259 13.631 80.6819 13.469 80.5739 13.271C80.4659 13.067 80.4059 12.821 80.3939 12.533H81.1589ZM85.4789 11.678C85.4789 11.96 85.5149 12.212 85.5869 12.434C85.6649 12.65 85.7699 12.833 85.9019 12.983C86.0339 13.127 86.1869 13.238 86.3609 13.316C86.5409 13.394 86.7299 13.433 86.9279 13.433C87.1259 13.433 87.3119 13.394 87.4859 13.316C87.6659 13.238 87.8219 13.127 87.9539 12.983C88.0859 12.833 88.1879 12.65 88.2599 12.434C88.3379 12.212 88.3769 11.96 88.3769 11.678C88.3769 11.396 88.3379 11.147 88.2599 10.931C88.1879 10.709 88.0859 10.523 87.9539 10.373C87.8219 10.223 87.6659 10.109 87.4859 10.031C87.3119 9.953 87.1259 9.914 86.9279 9.914C86.7299 9.914 86.5409 9.953 86.3609 10.031C86.1869 10.109 86.0339 10.223 85.9019 10.373C85.7699 10.523 85.6649 10.709 85.5869 10.931C85.5149 11.147 85.4789 11.396 85.4789 11.678ZM84.6689 11.678C84.6689 11.336 84.7169 11.018 84.8129 10.724C84.9089 10.424 85.0529 10.166 85.2449 9.95C85.4369 9.728 85.6739 9.554 85.9559 9.428C86.2379 9.302 86.5619 9.239 86.9279 9.239C87.2999 9.239 87.6239 9.302 87.8999 9.428C88.1819 9.554 88.4189 9.728 88.6109 9.95C88.8029 10.166 88.9469 10.424 89.0429 10.724C89.1389 11.018 89.1869 11.336 89.1869 11.678C89.1869 12.02 89.1389 12.338 89.0429 12.632C88.9469 12.926 88.8029 13.184 88.6109 13.406C88.4189 13.622 88.1819 13.793 87.8999 13.919C87.6239 14.039 87.2999 14.099 86.9279 14.099C86.5619 14.099 86.2379 14.039 85.9559 13.919C85.6739 13.793 85.4369 13.622 85.2449 13.406C85.0529 13.184 84.9089 12.926 84.8129 12.632C84.7169 12.338 84.6689 12.02 84.6689 11.678ZM90.3769 11.678C90.3769 11.96 90.4129 12.212 90.4849 12.434C90.5629 12.65 90.6679 12.833 90.7999 12.983C90.9319 13.127 91.0849 13.238 91.2589 13.316C91.4389 13.394 91.6279 13.433 91.8259 13.433C92.0239 13.433 92.2099 13.394 92.3839 13.316C92.5639 13.238 92.7199 13.127 92.8519 12.983C92.9839 12.833 93.0859 12.65 93.1579 12.434C93.2359 12.212 93.2749 11.96 93.2749 11.678C93.2749 11.396 93.2359 11.147 93.1579 10.931C93.0859 10.709 92.9839 10.523 92.8519 10.373C92.7199 10.223 92.5639 10.109 92.3839 10.031C92.2099 9.953 92.0239 9.914 91.8259 9.914C91.6279 9.914 91.4389 9.953 91.2589 10.031C91.0849 10.109 90.9319 10.223 90.7999 10.373C90.6679 10.523 90.5629 10.709 90.4849 10.931C90.4129 11.147 90.3769 11.396 90.3769 11.678ZM89.5669 11.678C89.5669 11.336 89.6149 11.018 89.7109 10.724C89.8069 10.424 89.9509 10.166 90.1429 9.95C90.3349 9.728 90.5719 9.554 90.8539 9.428C91.1359 9.302 91.4599 9.239 91.8259 9.239C92.1979 9.239 92.5219 9.302 92.7979 9.428C93.0799 9.554 93.3169 9.728 93.5089 9.95C93.7009 10.166 93.8449 10.424 93.9409 10.724C94.0369 11.018 94.0849 11.336 94.0849 11.678C94.0849 12.02 94.0369 12.338 93.9409 12.632C93.8449 12.926 93.7009 13.184 93.5089 13.406C93.3169 13.622 93.0799 13.793 92.7979 13.919C92.5219 14.039 92.1979 14.099 91.8259 14.099C91.4599 14.099 91.1359 14.039 90.8539 13.919C90.5719 13.793 90.3349 13.622 90.1429 13.406C89.9509 13.184 89.8069 12.926 89.7109 12.632C89.6149 12.338 89.5669 12.02 89.5669 11.678ZM94.7168 9.347H95.4368V10.085H95.4548C95.7728 9.521 96.2768 9.239 96.9668 9.239C97.2728 9.239 97.5278 9.281 97.7318 9.365C97.9358 9.449 98.1008 9.566 98.2268 9.716C98.3528 9.866 98.4398 10.046 98.4878 10.256C98.5418 10.46 98.5688 10.688 98.5688 10.94V14H97.8038V10.85C97.8038 10.562 97.7198 10.334 97.5518 10.166C97.3838 9.998 97.1528 9.914 96.8588 9.914C96.6248 9.914 96.4208 9.95 96.2468 10.022C96.0788 10.094 95.9378 10.196 95.8238 10.328C95.7098 10.46 95.6228 10.616 95.5628 10.796C95.5088 10.97 95.4818 11.162 95.4818 11.372V14H94.7168V9.347Z" fill="white"/>
<defs>
<linearGradient id="paint0_linear_766_900" x1="40.089" y1="20.0004" x2="31.8882" y2="20.0004" gradientUnits="userSpaceOnUse">
<stop stop-color="#FFBC00"/>
<stop offset="1" stop-color="#FFDA03"/>
</linearGradient>
<linearGradient id="paint1_linear_766_900" x1="33.8147" y1="23.9708" x2="23.1112" y2="32.7933" gradientUnits="userSpaceOnUse">
<stop stop-color="#E22652"/>
<stop offset="1" stop-color="#FF3A44"/>
</linearGradient>
<linearGradient id="paint2_linear_766_900" x1="21.3207" y1="9.04634" x2="28.457" y2="15.3213" gradientUnits="userSpaceOnUse">
<stop stop-color="#0ED574"/>
<stop offset="1" stop-color="#07F076"/>
</linearGradient>
</defs>
</svg>
