<svg width="115" height="31" viewBox="0 0 115 31" fill="none" xmlns="http://www.w3.org/2000/svg">
<path fill-rule="evenodd" clip-rule="evenodd" d="M1.43514 2.5471C1.14414 2.8551 0.973145 3.3321 0.973145 3.9511V26.0491C0.973145 26.6681 1.14414 27.1451 1.43514 27.4531L1.50914 27.5251L13.8881 15.1461V14.8541L1.50914 2.4751L1.43514 2.5471Z" fill="#00D7FE"/>
<mask id="mask0_3001_863" style="mask-type:alpha" maskUnits="userSpaceOnUse" x="13" y="10" width="12" height="10">
<path d="M18.0132 19.2741L13.8882 15.1461V14.8541L18.0152 10.7271L22.9972 13.5571C24.3932 14.3511 24.3932 15.6491 22.9972 16.4421L18.1082 19.2201L18.0132 19.2741Z" fill="white"/>
</mask>
<g mask="url(#mask0_3001_863)">
<path fill-rule="evenodd" clip-rule="evenodd" d="M18.0132 19.2741L13.8882 15.1461V14.8541L18.0152 10.7271L22.9972 13.5571C24.3932 14.3511 24.3932 15.6491 22.9972 16.4421L18.1082 19.2201L18.0132 19.2741Z" fill="url(#paint0_linear_3001_863)"/>
</g>
<mask id="mask1_3001_863" style="mask-type:alpha" maskUnits="userSpaceOnUse" x="1" y="15" width="18" height="13">
<path d="M18.1081 19.22L13.8881 15L1.43506 27.453C1.89606 27.94 2.65606 28 3.51206 27.514L18.1081 19.22Z" fill="white"/>
</mask>
<g mask="url(#mask1_3001_863)">
<path fill-rule="evenodd" clip-rule="evenodd" d="M18.1081 19.22L13.8881 15L1.43506 27.453C1.89606 27.94 2.65606 28 3.51206 27.514L18.1081 19.22Z" fill="url(#paint1_linear_3001_863)"/>
</g>
<mask id="mask2_3001_863" style="mask-type:alpha" maskUnits="userSpaceOnUse" x="1" y="2" width="18" height="13">
<path d="M18.1081 10.7802L3.51206 2.48617C2.65606 2.00017 1.89606 2.06017 1.43506 2.54717L13.8881 15.0002L18.1081 10.7802Z" fill="white"/>
</mask>
<g mask="url(#mask2_3001_863)">
<path fill-rule="evenodd" clip-rule="evenodd" d="M18.1081 10.7802L3.51206 2.48617C2.65606 2.00017 1.89606 2.06017 1.43506 2.54717L13.8881 15.0002L18.1081 10.7802Z" fill="url(#paint2_linear_3001_863)"/>
</g>
<path fill-rule="evenodd" clip-rule="evenodd" d="M95.894 25.953H97.76V13.452H95.894V25.953ZM112.701 17.955L110.562 23.375H110.498L108.278 17.955H106.268L109.597 25.53L107.699 29.744H109.646L114.776 17.955H112.701ZM102.119 24.533C101.507 24.533 100.655 24.228 100.655 23.472C100.655 22.507 101.717 22.137 102.633 22.137C103.454 22.137 103.839 22.314 104.338 22.555C104.193 23.713 103.196 24.533 102.119 24.533ZM102.344 17.682C100.993 17.682 99.594 18.277 99.015 19.596L100.671 20.287C101.025 19.596 101.684 19.37 102.376 19.37C103.341 19.37 104.322 19.949 104.338 20.979V21.107C104 20.914 103.277 20.625 102.392 20.625C100.607 20.625 98.789 21.606 98.789 23.439C98.789 25.112 100.253 26.19 101.893 26.19C103.148 26.19 103.839 25.627 104.274 24.967H104.338V25.932H106.139V21.14C106.139 18.92 104.483 17.682 102.344 17.682ZM90.812 19.477H88.158V15.192H90.812C92.207 15.192 92.999 16.347 92.999 17.334C92.999 18.303 92.207 19.477 90.812 19.477ZM90.764 13.452H86.293V25.953H88.158V21.217H90.764C92.832 21.217 94.865 19.719 94.865 17.334C94.865 14.949 92.832 13.452 90.764 13.452ZM66.383 24.535C65.094 24.535 64.015 23.456 64.015 21.974C64.015 20.476 65.094 19.38 66.383 19.38C67.656 19.38 68.654 20.476 68.654 21.974C68.654 23.456 67.656 24.535 66.383 24.535ZM68.525 18.655H68.461C68.042 18.156 67.237 17.705 66.222 17.705C64.095 17.705 62.146 19.573 62.146 21.974C62.146 24.358 64.095 26.211 66.222 26.211C67.237 26.211 68.042 25.76 68.461 25.244H68.525V25.856C68.525 27.484 67.656 28.354 66.254 28.354C65.11 28.354 64.401 27.532 64.111 26.839L62.484 27.516C62.951 28.644 64.192 30.029 66.254 30.029C68.445 30.029 70.298 28.74 70.298 25.599V17.962H68.525V18.655ZM71.587 25.953H73.456V13.451H71.587V25.953ZM76.21 21.829C76.162 20.186 77.483 19.348 78.433 19.348C79.175 19.348 79.803 19.718 80.012 20.25L76.21 21.829ZM82.01 20.411C81.656 19.461 80.576 17.705 78.369 17.705C76.178 17.705 74.358 19.428 74.358 21.958C74.358 24.342 76.162 26.211 78.578 26.211C80.528 26.211 81.656 25.019 82.123 24.326L80.673 23.359C80.19 24.068 79.529 24.535 78.578 24.535C77.628 24.535 76.951 24.1 76.516 23.247L82.203 20.895L82.01 20.411ZM36.702 19.01V20.814H41.019C40.89 21.829 40.552 22.57 40.037 23.086C39.408 23.714 38.425 24.406 36.702 24.406C34.044 24.406 31.965 22.264 31.965 19.606C31.965 16.947 34.044 14.805 36.702 14.805C38.136 14.805 39.183 15.369 39.956 16.094L41.229 14.821C40.149 13.79 38.716 13 36.702 13C33.061 13 30 15.965 30 19.606C30 23.247 33.061 26.211 36.702 26.211C38.667 26.211 40.149 25.567 41.309 24.358C42.501 23.166 42.872 21.491 42.872 20.137C42.872 19.718 42.84 19.332 42.775 19.01H36.702ZM47.781 24.535C46.492 24.535 45.38 23.472 45.38 21.958C45.38 20.427 46.492 19.38 47.781 19.38C49.069 19.38 50.181 20.427 50.181 21.958C50.181 23.472 49.069 24.535 47.781 24.535ZM47.781 17.705C45.428 17.705 43.511 19.493 43.511 21.958C43.511 24.406 45.428 26.211 47.781 26.211C50.133 26.211 52.05 24.406 52.05 21.958C52.05 19.493 50.133 17.705 47.781 17.705ZM57.094 24.535C55.805 24.535 54.693 23.472 54.693 21.958C54.693 20.427 55.805 19.38 57.094 19.38C58.383 19.38 59.494 20.427 59.494 21.958C59.494 23.472 58.383 24.535 57.094 24.535ZM57.094 17.705C54.742 17.705 52.825 19.493 52.825 21.958C52.825 24.406 54.742 26.211 57.094 26.211C59.446 26.211 61.363 24.406 61.363 21.958C61.363 19.493 59.446 17.705 57.094 17.705Z" fill="#FFFFFE"/>
<path d="M35.4668 8.16064C35.25 8.47119 34.9468 8.7041 34.5571 8.85938C34.1704 9.01172 33.7192 9.08789 33.2036 9.08789C32.6821 9.08789 32.2192 8.96631 31.8149 8.72314C31.4106 8.47705 31.0972 8.12842 30.8745 7.67725C30.6548 7.22607 30.542 6.70312 30.5361 6.1084V5.55029C30.5361 4.58643 30.7603 3.83936 31.2085 3.30908C31.6597 2.77881 32.2925 2.51367 33.1069 2.51367C33.7749 2.51367 34.3125 2.68506 34.7197 3.02783C35.127 3.36768 35.376 3.85107 35.4668 4.47803H34.623C34.4648 3.63135 33.9609 3.20801 33.1113 3.20801C32.5459 3.20801 32.1167 3.40723 31.8237 3.80566C31.5337 4.20117 31.3872 4.77539 31.3843 5.52832V6.05127C31.3843 6.76904 31.5483 7.34033 31.8765 7.76514C32.2046 8.18701 32.6484 8.39795 33.208 8.39795C33.5244 8.39795 33.8013 8.36279 34.0386 8.29248C34.2759 8.22217 34.4722 8.10352 34.6274 7.93652V6.49951H33.1465V5.81396H35.4668V8.16064ZM40.2241 6.04248H37.4512V8.31006H40.6724V9H36.6074V2.60156H40.6284V3.2959H37.4512V5.35254H40.2241V6.04248ZM45.9615 3.2959H43.9048V9H43.0655V3.2959H41.0132V2.60156H45.9615V3.2959ZM49.3326 9H48.4888V2.60156H49.3326V9ZM54.8985 3.2959H52.8419V9H52.0025V3.2959H49.9503V2.60156H54.8985V3.2959ZM62.2863 6.00732C62.2863 6.63428 62.1808 7.18213 61.9699 7.65088C61.7589 8.1167 61.4601 8.47266 61.0734 8.71875C60.6867 8.96484 60.2355 9.08789 59.7199 9.08789C59.216 9.08789 58.7692 8.96484 58.3795 8.71875C57.9899 8.46973 57.6867 8.1167 57.4699 7.65967C57.256 7.19971 57.1461 6.66797 57.1403 6.06445V5.60303C57.1403 4.98779 57.2472 4.44434 57.4611 3.97266C57.6749 3.50098 57.9767 3.14063 58.3663 2.8916C58.7589 2.63965 59.2072 2.51367 59.7111 2.51367C60.2238 2.51367 60.6749 2.63818 61.0646 2.88721C61.4572 3.1333 61.7589 3.49219 61.9699 3.96387C62.1808 4.43262 62.2863 4.979 62.2863 5.60303V6.00732ZM61.4469 5.59424C61.4469 4.83545 61.2946 4.25391 60.9899 3.84961C60.6852 3.44238 60.2589 3.23877 59.7111 3.23877C59.1779 3.23877 58.7575 3.44238 58.4498 3.84961C58.1452 4.25391 57.9884 4.81641 57.9796 5.53711V6.00732C57.9796 6.74268 58.1334 7.32129 58.4411 7.74316C58.7516 8.16211 59.1779 8.37158 59.7199 8.37158C60.2648 8.37158 60.6867 8.17383 60.9855 7.77832C61.2843 7.37988 61.4381 6.81006 61.4469 6.06885V5.59424ZM68.1994 9H67.3512L64.13 4.06934V9H63.2819V2.60156H64.13L67.36 7.5542V2.60156H68.1994V9Z" fill="white"/>
<defs>
<linearGradient id="paint0_linear_3001_863" x1="22.089" y1="15.0004" x2="13.8882" y2="15.0004" gradientUnits="userSpaceOnUse">
<stop stop-color="#FFBC00"/>
<stop offset="1" stop-color="#FFDA03"/>
</linearGradient>
<linearGradient id="paint1_linear_3001_863" x1="15.8147" y1="18.9708" x2="5.11116" y2="27.7933" gradientUnits="userSpaceOnUse">
<stop stop-color="#E22652"/>
<stop offset="1" stop-color="#FF3A44"/>
</linearGradient>
<linearGradient id="paint2_linear_3001_863" x1="3.32073" y1="4.04634" x2="10.457" y2="10.3213" gradientUnits="userSpaceOnUse">
<stop stop-color="#0ED574"/>
<stop offset="1" stop-color="#07F076"/>
</linearGradient>
</defs>
</svg>
