<svg width="181" height="24" viewBox="0 0 181 24" fill="none" xmlns="http://www.w3.org/2000/svg">
<path d="M34.486 14.136H37.076L35.816 10.468H35.788L34.486 14.136ZM34.696 8.004H36.95L40.688 18H38.406L37.65 15.774H33.912L33.128 18H30.916L34.696 8.004ZM45.6579 18H43.4459L40.9679 10.762H43.0539L44.5799 15.704H44.6079L46.1339 10.762H48.1079L45.6579 18ZM49.4033 12.988C49.4313 12.5213 49.548 12.134 49.7533 11.826C49.9587 11.518 50.22 11.2707 50.5373 11.084C50.8547 10.8973 51.2093 10.7667 51.6013 10.692C52.0027 10.608 52.404 10.566 52.8053 10.566C53.1693 10.566 53.538 10.594 53.9113 10.65C54.2847 10.6967 54.6253 10.7947 54.9333 10.944C55.2413 11.0933 55.4933 11.3033 55.6893 11.574C55.8853 11.8353 55.9833 12.1853 55.9833 12.624V16.39C55.9833 16.7167 56.002 17.0293 56.0393 17.328C56.0767 17.6267 56.142 17.8507 56.2353 18H54.2193C54.182 17.888 54.1493 17.776 54.1213 17.664C54.1027 17.5427 54.0887 17.4213 54.0793 17.3C53.762 17.6267 53.3887 17.8553 52.9593 17.986C52.53 18.1167 52.0913 18.182 51.6433 18.182C51.298 18.182 50.976 18.14 50.6773 18.056C50.3787 17.972 50.1173 17.8413 49.8933 17.664C49.6693 17.4867 49.492 17.2627 49.3613 16.992C49.24 16.7213 49.1793 16.3993 49.1793 16.026C49.1793 15.6153 49.2493 15.2793 49.3893 15.018C49.5387 14.7473 49.7253 14.5327 49.9493 14.374C50.1827 14.2153 50.444 14.0987 50.7333 14.024C51.032 13.94 51.3307 13.8747 51.6293 13.828C51.928 13.7813 52.222 13.744 52.5113 13.716C52.8007 13.688 53.0573 13.646 53.2813 13.59C53.5053 13.534 53.6827 13.4547 53.8133 13.352C53.944 13.24 54.0047 13.0813 53.9953 12.876C53.9953 12.6613 53.958 12.4933 53.8833 12.372C53.818 12.2413 53.7247 12.1433 53.6033 12.078C53.4913 12.0033 53.356 11.9567 53.1973 11.938C53.048 11.91 52.8847 11.896 52.7073 11.896C52.3153 11.896 52.0073 11.98 51.7833 12.148C51.5593 12.316 51.4287 12.596 51.3913 12.988H49.4033ZM53.9953 14.458C53.9113 14.5327 53.804 14.5933 53.6733 14.64C53.552 14.6773 53.4167 14.71 53.2673 14.738C53.1273 14.766 52.978 14.7893 52.8193 14.808C52.6607 14.8267 52.502 14.85 52.3433 14.878C52.194 14.906 52.0447 14.9433 51.8953 14.99C51.7553 15.0367 51.6293 15.102 51.5173 15.186C51.4147 15.2607 51.3307 15.3587 51.2653 15.48C51.2 15.6013 51.1673 15.7553 51.1673 15.942C51.1673 16.1193 51.2 16.2687 51.2653 16.39C51.3307 16.5113 51.4193 16.6093 51.5313 16.684C51.6433 16.7493 51.774 16.796 51.9233 16.824C52.0727 16.852 52.2267 16.866 52.3853 16.866C52.7773 16.866 53.0807 16.8007 53.2953 16.67C53.51 16.5393 53.6687 16.3853 53.7713 16.208C53.874 16.0213 53.9347 15.8347 53.9533 15.648C53.9813 15.4613 53.9953 15.312 53.9953 15.2V14.458ZM60.1304 9.642H58.1424V8.004H60.1304V9.642ZM58.1424 10.762H60.1304V18H58.1424V10.762ZM62.1718 12.988C62.1998 12.5213 62.3164 12.134 62.5218 11.826C62.7271 11.518 62.9884 11.2707 63.3058 11.084C63.6231 10.8973 63.9778 10.7667 64.3698 10.692C64.7711 10.608 65.1724 10.566 65.5738 10.566C65.9378 10.566 66.3064 10.594 66.6798 10.65C67.0531 10.6967 67.3938 10.7947 67.7018 10.944C68.0098 11.0933 68.2618 11.3033 68.4578 11.574C68.6538 11.8353 68.7518 12.1853 68.7518 12.624V16.39C68.7518 16.7167 68.7704 17.0293 68.8078 17.328C68.8451 17.6267 68.9104 17.8507 69.0038 18H66.9878C66.9504 17.888 66.9178 17.776 66.8898 17.664C66.8711 17.5427 66.8571 17.4213 66.8478 17.3C66.5304 17.6267 66.1571 17.8553 65.7278 17.986C65.2984 18.1167 64.8598 18.182 64.4118 18.182C64.0664 18.182 63.7444 18.14 63.4458 18.056C63.1471 17.972 62.8858 17.8413 62.6618 17.664C62.4378 17.4867 62.2604 17.2627 62.1298 16.992C62.0084 16.7213 61.9478 16.3993 61.9478 16.026C61.9478 15.6153 62.0178 15.2793 62.1578 15.018C62.3071 14.7473 62.4938 14.5327 62.7178 14.374C62.9511 14.2153 63.2124 14.0987 63.5018 14.024C63.8004 13.94 64.0991 13.8747 64.3978 13.828C64.6964 13.7813 64.9904 13.744 65.2798 13.716C65.5691 13.688 65.8258 13.646 66.0498 13.59C66.2738 13.534 66.4511 13.4547 66.5818 13.352C66.7124 13.24 66.7731 13.0813 66.7638 12.876C66.7638 12.6613 66.7264 12.4933 66.6518 12.372C66.5864 12.2413 66.4931 12.1433 66.3718 12.078C66.2598 12.0033 66.1244 11.9567 65.9658 11.938C65.8164 11.91 65.6531 11.896 65.4758 11.896C65.0838 11.896 64.7758 11.98 64.5518 12.148C64.3278 12.316 64.1971 12.596 64.1598 12.988H62.1718ZM66.7638 14.458C66.6798 14.5327 66.5724 14.5933 66.4418 14.64C66.3204 14.6773 66.1851 14.71 66.0358 14.738C65.8958 14.766 65.7464 14.7893 65.5878 14.808C65.4291 14.8267 65.2704 14.85 65.1118 14.878C64.9624 14.906 64.8131 14.9433 64.6638 14.99C64.5238 15.0367 64.3978 15.102 64.2858 15.186C64.1831 15.2607 64.0991 15.3587 64.0338 15.48C63.9684 15.6013 63.9358 15.7553 63.9358 15.942C63.9358 16.1193 63.9684 16.2687 64.0338 16.39C64.0991 16.5113 64.1878 16.6093 64.2998 16.684C64.4118 16.7493 64.5424 16.796 64.6918 16.824C64.8411 16.852 64.9951 16.866 65.1538 16.866C65.5458 16.866 65.8491 16.8007 66.0638 16.67C66.2784 16.5393 66.4371 16.3853 66.5398 16.208C66.6424 16.0213 66.7031 15.8347 66.7218 15.648C66.7498 15.4613 66.7638 15.312 66.7638 15.2V14.458ZM76.1608 14.388C76.1608 14.08 76.1282 13.786 76.0628 13.506C75.9975 13.226 75.8948 12.9787 75.7548 12.764C75.6148 12.5493 75.4375 12.3813 75.2228 12.26C75.0175 12.1293 74.7655 12.064 74.4668 12.064C74.1775 12.064 73.9255 12.1293 73.7108 12.26C73.4962 12.3813 73.3188 12.5493 73.1788 12.764C73.0388 12.9787 72.9362 13.226 72.8708 13.506C72.8055 13.786 72.7728 14.08 72.7728 14.388C72.7728 14.6867 72.8055 14.976 72.8708 15.256C72.9362 15.536 73.0388 15.7833 73.1788 15.998C73.3188 16.2127 73.4962 16.3853 73.7108 16.516C73.9255 16.6373 74.1775 16.698 74.4668 16.698C74.7655 16.698 75.0175 16.6373 75.2228 16.516C75.4375 16.3853 75.6148 16.2127 75.7548 15.998C75.8948 15.7833 75.9975 15.536 76.0628 15.256C76.1282 14.976 76.1608 14.6867 76.1608 14.388ZM70.8548 8.004H72.8428V11.644H72.8708C73.1135 11.2707 73.4402 11 73.8508 10.832C74.2708 10.6547 74.7048 10.566 75.1528 10.566C75.5168 10.566 75.8762 10.6407 76.2308 10.79C76.5855 10.9393 76.9028 11.168 77.1828 11.476C77.4722 11.784 77.7055 12.1807 77.8828 12.666C78.0602 13.142 78.1488 13.7113 78.1488 14.374C78.1488 15.0367 78.0602 15.6107 77.8828 16.096C77.7055 16.572 77.4722 16.964 77.1828 17.272C76.9028 17.58 76.5855 17.8087 76.2308 17.958C75.8762 18.1073 75.5168 18.182 75.1528 18.182C74.6208 18.182 74.1448 18.098 73.7248 17.93C73.3048 17.762 72.9875 17.4773 72.7728 17.076H72.7448V18H70.8548V8.004ZM80.0294 8.004H82.0174V18H80.0294V8.004ZM89.0148 13.604C88.9215 13.1 88.7535 12.7173 88.5108 12.456C88.2775 12.1947 87.9181 12.064 87.4328 12.064C87.1155 12.064 86.8495 12.12 86.6348 12.232C86.4295 12.3347 86.2615 12.4653 86.1308 12.624C86.0095 12.7827 85.9208 12.9507 85.8648 13.128C85.8181 13.3053 85.7901 13.464 85.7808 13.604H89.0148ZM85.7808 14.864C85.8088 15.508 85.9721 15.9747 86.2708 16.264C86.5695 16.5533 86.9988 16.698 87.5588 16.698C87.9601 16.698 88.3055 16.6 88.5948 16.404C88.8841 16.1987 89.0615 15.984 89.1268 15.76H90.8768C90.5968 16.628 90.1675 17.2487 89.5888 17.622C89.0101 17.9953 88.3101 18.182 87.4888 18.182C86.9195 18.182 86.4061 18.0933 85.9488 17.916C85.4915 17.7293 85.1041 17.468 84.7868 17.132C84.4695 16.796 84.2221 16.3947 84.0448 15.928C83.8768 15.4613 83.7928 14.948 83.7928 14.388C83.7928 13.8467 83.8815 13.3427 84.0588 12.876C84.2361 12.4093 84.4881 12.008 84.8148 11.672C85.1415 11.3267 85.5288 11.056 85.9768 10.86C86.4341 10.664 86.9381 10.566 87.4888 10.566C88.1048 10.566 88.6415 10.6873 89.0988 10.93C89.5561 11.1633 89.9295 11.4807 90.2188 11.882C90.5175 12.2833 90.7321 12.7407 90.8628 13.254C90.9935 13.7673 91.0401 14.304 91.0028 14.864H85.7808ZM97.1143 12.988C97.1423 12.5213 97.259 12.134 97.4643 11.826C97.6697 11.518 97.931 11.2707 98.2483 11.084C98.5657 10.8973 98.9203 10.7667 99.3123 10.692C99.7137 10.608 100.115 10.566 100.516 10.566C100.88 10.566 101.249 10.594 101.622 10.65C101.996 10.6967 102.336 10.7947 102.644 10.944C102.952 11.0933 103.204 11.3033 103.4 11.574C103.596 11.8353 103.694 12.1853 103.694 12.624V16.39C103.694 16.7167 103.713 17.0293 103.75 17.328C103.788 17.6267 103.853 17.8507 103.946 18H101.93C101.893 17.888 101.86 17.776 101.832 17.664C101.814 17.5427 101.8 17.4213 101.79 17.3C101.473 17.6267 101.1 17.8553 100.67 17.986C100.241 18.1167 99.8023 18.182 99.3543 18.182C99.009 18.182 98.687 18.14 98.3883 18.056C98.0897 17.972 97.8283 17.8413 97.6043 17.664C97.3803 17.4867 97.203 17.2627 97.0723 16.992C96.951 16.7213 96.8903 16.3993 96.8903 16.026C96.8903 15.6153 96.9603 15.2793 97.1003 15.018C97.2497 14.7473 97.4363 14.5327 97.6603 14.374C97.8937 14.2153 98.155 14.0987 98.4443 14.024C98.743 13.94 99.0417 13.8747 99.3403 13.828C99.639 13.7813 99.933 13.744 100.222 13.716C100.512 13.688 100.768 13.646 100.992 13.59C101.216 13.534 101.394 13.4547 101.524 13.352C101.655 13.24 101.716 13.0813 101.706 12.876C101.706 12.6613 101.669 12.4933 101.594 12.372C101.529 12.2413 101.436 12.1433 101.314 12.078C101.202 12.0033 101.067 11.9567 100.908 11.938C100.759 11.91 100.596 11.896 100.418 11.896C100.026 11.896 99.7183 11.98 99.4943 12.148C99.2703 12.316 99.1397 12.596 99.1023 12.988H97.1143ZM101.706 14.458C101.622 14.5327 101.515 14.5933 101.384 14.64C101.263 14.6773 101.128 14.71 100.978 14.738C100.838 14.766 100.689 14.7893 100.53 14.808C100.372 14.8267 100.213 14.85 100.054 14.878C99.905 14.906 99.7557 14.9433 99.6063 14.99C99.4663 15.0367 99.3403 15.102 99.2283 15.186C99.1257 15.2607 99.0417 15.3587 98.9763 15.48C98.911 15.6013 98.8783 15.7553 98.8783 15.942C98.8783 16.1193 98.911 16.2687 98.9763 16.39C99.0417 16.5113 99.1303 16.6093 99.2423 16.684C99.3543 16.7493 99.485 16.796 99.6343 16.824C99.7837 16.852 99.9377 16.866 100.096 16.866C100.488 16.866 100.792 16.8007 101.006 16.67C101.221 16.5393 101.38 16.3853 101.482 16.208C101.585 16.0213 101.646 15.8347 101.664 15.648C101.692 15.4613 101.706 15.312 101.706 15.2V14.458ZM108.317 10.762H109.773V12.092H108.317V15.676C108.317 16.012 108.373 16.236 108.485 16.348C108.597 16.46 108.821 16.516 109.157 16.516C109.269 16.516 109.377 16.5113 109.479 16.502C109.582 16.4927 109.68 16.4787 109.773 16.46V18C109.605 18.028 109.419 18.0467 109.213 18.056C109.008 18.0653 108.807 18.07 108.611 18.07C108.303 18.07 108.009 18.0467 107.729 18C107.459 17.9627 107.216 17.8833 107.001 17.762C106.796 17.6407 106.633 17.468 106.511 17.244C106.39 17.02 106.329 16.726 106.329 16.362V12.092H105.125V10.762H106.329V8.592H108.317V10.762ZM118.158 9.852H115.162V8.004H123.352V9.852H120.356V18H118.158V9.852ZM128.168 13.604C128.074 13.1 127.906 12.7173 127.664 12.456C127.43 12.1947 127.071 12.064 126.586 12.064C126.268 12.064 126.002 12.12 125.788 12.232C125.582 12.3347 125.414 12.4653 125.284 12.624C125.162 12.7827 125.074 12.9507 125.018 13.128C124.971 13.3053 124.943 13.464 124.934 13.604H128.168ZM124.934 14.864C124.962 15.508 125.125 15.9747 125.424 16.264C125.722 16.5533 126.152 16.698 126.712 16.698C127.113 16.698 127.458 16.6 127.748 16.404C128.037 16.1987 128.214 15.984 128.28 15.76H130.03C129.75 16.628 129.32 17.2487 128.742 17.622C128.163 17.9953 127.463 18.182 126.642 18.182C126.072 18.182 125.559 18.0933 125.102 17.916C124.644 17.7293 124.257 17.468 123.94 17.132C123.622 16.796 123.375 16.3947 123.198 15.928C123.03 15.4613 122.946 14.948 122.946 14.388C122.946 13.8467 123.034 13.3427 123.212 12.876C123.389 12.4093 123.641 12.008 123.968 11.672C124.294 11.3267 124.682 11.056 125.13 10.86C125.587 10.664 126.091 10.566 126.642 10.566C127.258 10.566 127.794 10.6873 128.252 10.93C128.709 11.1633 129.082 11.4807 129.372 11.882C129.67 12.2833 129.885 12.7407 130.016 13.254C130.146 13.7673 130.193 14.304 130.156 14.864H124.934ZM131.951 8.004H133.939V18H131.951V8.004ZM140.936 13.604C140.843 13.1 140.675 12.7173 140.432 12.456C140.199 12.1947 139.84 12.064 139.354 12.064C139.037 12.064 138.771 12.12 138.556 12.232C138.351 12.3347 138.183 12.4653 138.052 12.624C137.931 12.7827 137.842 12.9507 137.786 13.128C137.74 13.3053 137.712 13.464 137.702 13.604H140.936ZM137.702 14.864C137.73 15.508 137.894 15.9747 138.192 16.264C138.491 16.5533 138.92 16.698 139.48 16.698C139.882 16.698 140.227 16.6 140.516 16.404C140.806 16.1987 140.983 15.984 141.048 15.76H142.798C142.518 16.628 142.089 17.2487 141.51 17.622C140.932 17.9953 140.232 18.182 139.41 18.182C138.841 18.182 138.328 18.0933 137.87 17.916C137.413 17.7293 137.026 17.468 136.708 17.132C136.391 16.796 136.144 16.3947 135.966 15.928C135.798 15.4613 135.714 14.948 135.714 14.388C135.714 13.8467 135.803 13.3427 135.98 12.876C136.158 12.4093 136.41 12.008 136.736 11.672C137.063 11.3267 137.45 11.056 137.898 10.86C138.356 10.664 138.86 10.566 139.41 10.566C140.026 10.566 140.563 10.6873 141.02 10.93C141.478 11.1633 141.851 11.4807 142.14 11.882C142.439 12.2833 142.654 12.7407 142.784 13.254C142.915 13.7673 142.962 14.304 142.924 14.864H137.702ZM148.037 16.292C148.317 16.292 148.565 16.236 148.779 16.124C148.994 16.012 149.171 15.8627 149.311 15.676C149.451 15.4893 149.554 15.2793 149.619 15.046C149.694 14.8033 149.731 14.5513 149.731 14.29C149.731 13.9913 149.703 13.7113 149.647 13.45C149.591 13.1793 149.498 12.9413 149.367 12.736C149.237 12.5307 149.064 12.3673 148.849 12.246C148.635 12.1247 148.364 12.064 148.037 12.064C147.757 12.064 147.515 12.12 147.309 12.232C147.113 12.344 146.945 12.498 146.805 12.694C146.675 12.8807 146.577 13.1 146.511 13.352C146.455 13.5947 146.427 13.8513 146.427 14.122C146.427 14.3833 146.451 14.6447 146.497 14.906C146.553 15.158 146.642 15.3867 146.763 15.592C146.894 15.7973 147.062 15.9653 147.267 16.096C147.473 16.2267 147.729 16.292 148.037 16.292ZM151.621 17.538C151.621 17.8273 151.579 18.1587 151.495 18.532C151.421 18.9053 151.253 19.2507 150.991 19.568C150.73 19.8947 150.352 20.17 149.857 20.394C149.363 20.618 148.7 20.73 147.869 20.73C147.515 20.73 147.151 20.6833 146.777 20.59C146.413 20.506 146.077 20.3707 145.769 20.184C145.471 19.9973 145.219 19.7547 145.013 19.456C144.817 19.1667 144.705 18.8167 144.677 18.406H146.651C146.745 18.7793 146.927 19.036 147.197 19.176C147.468 19.3253 147.781 19.4 148.135 19.4C148.695 19.4 149.101 19.232 149.353 18.896C149.615 18.56 149.741 18.1353 149.731 17.622V16.67H149.703C149.489 17.0527 149.181 17.3373 148.779 17.524C148.387 17.7013 147.972 17.79 147.533 17.79C146.992 17.79 146.525 17.6967 146.133 17.51C145.741 17.314 145.419 17.0527 145.167 16.726C144.915 16.39 144.729 16.0027 144.607 15.564C144.495 15.116 144.439 14.6447 144.439 14.15C144.439 13.6833 144.505 13.2353 144.635 12.806C144.775 12.3673 144.976 11.9847 145.237 11.658C145.499 11.322 145.821 11.056 146.203 10.86C146.595 10.664 147.043 10.566 147.547 10.566C148.023 10.566 148.439 10.6547 148.793 10.832C149.157 11.0093 149.461 11.308 149.703 11.728H149.731V10.762H151.621V17.538ZM153.782 10.762H155.672V12.106H155.7C155.793 11.882 155.919 11.6767 156.078 11.49C156.237 11.294 156.419 11.1307 156.624 11C156.829 10.86 157.049 10.7527 157.282 10.678C157.515 10.6033 157.758 10.566 158.01 10.566C158.141 10.566 158.285 10.5893 158.444 10.636V12.484C158.351 12.4653 158.239 12.4513 158.108 12.442C157.977 12.4233 157.851 12.414 157.73 12.414C157.366 12.414 157.058 12.4747 156.806 12.596C156.554 12.7173 156.349 12.8853 156.19 13.1C156.041 13.3053 155.933 13.548 155.868 13.828C155.803 14.108 155.77 14.4113 155.77 14.738V18H153.782V10.762ZM159.699 12.988C159.727 12.5213 159.844 12.134 160.049 11.826C160.255 11.518 160.516 11.2707 160.833 11.084C161.151 10.8973 161.505 10.7667 161.897 10.692C162.299 10.608 162.7 10.566 163.101 10.566C163.465 10.566 163.834 10.594 164.207 10.65C164.581 10.6967 164.921 10.7947 165.229 10.944C165.537 11.0933 165.789 11.3033 165.985 11.574C166.181 11.8353 166.279 12.1853 166.279 12.624V16.39C166.279 16.7167 166.298 17.0293 166.335 17.328C166.373 17.6267 166.438 17.8507 166.531 18H164.515C164.478 17.888 164.445 17.776 164.417 17.664C164.399 17.5427 164.385 17.4213 164.375 17.3C164.058 17.6267 163.685 17.8553 163.255 17.986C162.826 18.1167 162.387 18.182 161.939 18.182C161.594 18.182 161.272 18.14 160.973 18.056C160.675 17.972 160.413 17.8413 160.189 17.664C159.965 17.4867 159.788 17.2627 159.657 16.992C159.536 16.7213 159.475 16.3993 159.475 16.026C159.475 15.6153 159.545 15.2793 159.685 15.018C159.835 14.7473 160.021 14.5327 160.245 14.374C160.479 14.2153 160.74 14.0987 161.029 14.024C161.328 13.94 161.627 13.8747 161.925 13.828C162.224 13.7813 162.518 13.744 162.807 13.716C163.097 13.688 163.353 13.646 163.577 13.59C163.801 13.534 163.979 13.4547 164.109 13.352C164.24 13.24 164.301 13.0813 164.291 12.876C164.291 12.6613 164.254 12.4933 164.179 12.372C164.114 12.2413 164.021 12.1433 163.899 12.078C163.787 12.0033 163.652 11.9567 163.493 11.938C163.344 11.91 163.181 11.896 163.003 11.896C162.611 11.896 162.303 11.98 162.079 12.148C161.855 12.316 161.725 12.596 161.687 12.988H159.699ZM164.291 14.458C164.207 14.5327 164.1 14.5933 163.969 14.64C163.848 14.6773 163.713 14.71 163.563 14.738C163.423 14.766 163.274 14.7893 163.115 14.808C162.957 14.8267 162.798 14.85 162.639 14.878C162.49 14.906 162.341 14.9433 162.191 14.99C162.051 15.0367 161.925 15.102 161.813 15.186C161.711 15.2607 161.627 15.3587 161.561 15.48C161.496 15.6013 161.463 15.7553 161.463 15.942C161.463 16.1193 161.496 16.2687 161.561 16.39C161.627 16.5113 161.715 16.6093 161.827 16.684C161.939 16.7493 162.07 16.796 162.219 16.824C162.369 16.852 162.523 16.866 162.681 16.866C163.073 16.866 163.377 16.8007 163.591 16.67C163.806 16.5393 163.965 16.3853 164.067 16.208C164.17 16.0213 164.231 15.8347 164.249 15.648C164.277 15.4613 164.291 15.312 164.291 15.2V14.458ZM168.438 10.762H170.314V11.742H170.342C170.604 11.3687 170.916 11.0793 171.28 10.874C171.654 10.6687 172.078 10.566 172.554 10.566C173.012 10.566 173.427 10.6547 173.8 10.832C174.183 11.0093 174.472 11.322 174.668 11.77C174.883 11.4527 175.172 11.1727 175.536 10.93C175.91 10.6873 176.348 10.566 176.852 10.566C177.235 10.566 177.59 10.6127 177.916 10.706C178.243 10.7993 178.523 10.9487 178.756 11.154C178.99 11.3593 179.172 11.63 179.302 11.966C179.433 12.2927 179.498 12.6893 179.498 13.156V18H177.51V13.898C177.51 13.6553 177.501 13.4267 177.482 13.212C177.464 12.9973 177.412 12.8107 177.328 12.652C177.244 12.4933 177.118 12.3673 176.95 12.274C176.792 12.1807 176.572 12.134 176.292 12.134C176.012 12.134 175.784 12.19 175.606 12.302C175.438 12.4047 175.303 12.5447 175.2 12.722C175.107 12.89 175.042 13.086 175.004 13.31C174.976 13.5247 174.962 13.744 174.962 13.968V18H172.974V13.94C172.974 13.7253 172.97 13.5153 172.96 13.31C172.951 13.0953 172.909 12.8993 172.834 12.722C172.769 12.5447 172.652 12.4047 172.484 12.302C172.326 12.19 172.088 12.134 171.77 12.134C171.677 12.134 171.551 12.1573 171.392 12.204C171.243 12.2413 171.094 12.3207 170.944 12.442C170.804 12.554 170.683 12.722 170.58 12.946C170.478 13.1607 170.426 13.4453 170.426 13.8V18H168.438V10.762Z" fill="white"/>
<path d="M2.14753 11.8099C7.3949 9.52374 10.894 8.01654 12.6447 7.28833C17.6435 5.20916 18.6822 4.84799 19.3592 4.83606C19.5081 4.83344 19.8411 4.87034 20.0567 5.04534C20.2388 5.1931 20.2889 5.39271 20.3129 5.5328C20.3369 5.6729 20.3667 5.99204 20.343 6.2414C20.0721 9.08763 18.9 15.9947 18.3037 19.1825C18.0514 20.5314 17.5546 20.9836 17.0736 21.0279C16.0283 21.1241 15.2345 20.3371 14.2221 19.6735C12.6379 18.635 11.7429 17.9885 10.2051 16.9751C8.42795 15.804 9.58001 15.1603 10.5928 14.1084C10.8579 13.8331 15.4635 9.64397 15.5526 9.26395C15.5637 9.21642 15.5741 9.03926 15.4688 8.94571C15.3636 8.85216 15.2083 8.88415 15.0962 8.9096C14.9373 8.94566 12.4064 10.6184 7.50365 13.928C6.78528 14.4212 6.13461 14.6616 5.55163 14.649C4.90893 14.6351 3.67265 14.2856 2.7536 13.9869C1.62635 13.6204 0.730432 13.4267 0.808447 12.8044C0.849081 12.4803 1.29544 12.1488 2.14753 11.8099Z" fill="white"/>
</svg>
