<svg width="130" height="40" viewBox="0 0 130 40" fill="none" xmlns="http://www.w3.org/2000/svg">
<rect width="130" height="40" rx="20" fill="#4162FF"/>
<rect x="0.5" y="0.5" width="129" height="39" rx="19.5" stroke="white" stroke-opacity="0.06"/>
<path d="M41.809 12.345H43.987L42.916 9.348H42.898L41.809 12.345ZM42.448 8.574H43.393L45.904 15H44.959L44.257 13.065H41.539L40.819 15H39.946L42.448 8.574ZM48.5307 15H47.7117L45.9837 10.347H46.8387L48.1437 14.226H48.1617L49.4307 10.347H50.2317L48.5307 15ZM55.2357 14.982C55.1037 15.06 54.9207 15.099 54.6867 15.099C54.4887 15.099 54.3297 15.045 54.2097 14.937C54.0957 14.823 54.0387 14.64 54.0387 14.388C53.8287 14.64 53.5827 14.823 53.3007 14.937C53.0247 15.045 52.7247 15.099 52.4007 15.099C52.1907 15.099 51.9897 15.075 51.7977 15.027C51.6117 14.979 51.4497 14.904 51.3117 14.802C51.1737 14.7 51.0627 14.568 50.9787 14.406C50.9007 14.238 50.8617 14.037 50.8617 13.803C50.8617 13.539 50.9067 13.323 50.9967 13.155C51.0867 12.987 51.2037 12.852 51.3477 12.75C51.4977 12.642 51.6657 12.561 51.8517 12.507C52.0437 12.453 52.2387 12.408 52.4367 12.372C52.6467 12.33 52.8447 12.3 53.0307 12.282C53.2227 12.258 53.3907 12.228 53.5347 12.192C53.6787 12.15 53.7927 12.093 53.8767 12.021C53.9607 11.943 54.0027 11.832 54.0027 11.688C54.0027 11.52 53.9697 11.385 53.9037 11.283C53.8437 11.181 53.7627 11.103 53.6607 11.049C53.5647 10.995 53.4537 10.959 53.3277 10.941C53.2077 10.923 53.0877 10.914 52.9677 10.914C52.6437 10.914 52.3737 10.977 52.1577 11.103C51.9417 11.223 51.8247 11.454 51.8067 11.796H51.0417C51.0537 11.508 51.1137 11.265 51.2217 11.067C51.3297 10.869 51.4737 10.71 51.6537 10.59C51.8337 10.464 52.0377 10.374 52.2657 10.32C52.4997 10.266 52.7487 10.239 53.0127 10.239C53.2227 10.239 53.4297 10.254 53.6337 10.284C53.8437 10.314 54.0327 10.377 54.2007 10.473C54.3687 10.563 54.5037 10.692 54.6057 10.86C54.7077 11.028 54.7587 11.247 54.7587 11.517V13.911C54.7587 14.091 54.7677 14.223 54.7857 14.307C54.8097 14.391 54.8817 14.433 55.0017 14.433C55.0677 14.433 55.1457 14.418 55.2357 14.388V14.982ZM53.9937 12.597C53.8977 12.669 53.7717 12.723 53.6157 12.759C53.4597 12.789 53.2947 12.816 53.1207 12.84C52.9527 12.858 52.7817 12.882 52.6077 12.912C52.4337 12.936 52.2777 12.978 52.1397 13.038C52.0017 13.098 51.8877 13.185 51.7977 13.299C51.7137 13.407 51.6717 13.557 51.6717 13.749C51.6717 13.875 51.6957 13.983 51.7437 14.073C51.7977 14.157 51.8637 14.226 51.9417 14.28C52.0257 14.334 52.1217 14.373 52.2297 14.397C52.3377 14.421 52.4517 14.433 52.5717 14.433C52.8237 14.433 53.0397 14.4 53.2197 14.334C53.3997 14.262 53.5467 14.175 53.6607 14.073C53.7747 13.965 53.8587 13.851 53.9127 13.731C53.9667 13.605 53.9937 13.488 53.9937 13.38V12.597ZM56.9377 9.51H56.1727V8.574H56.9377V9.51ZM56.1727 10.347H56.9377V15H56.1727V10.347ZM62.4248 14.982C62.2928 15.06 62.1098 15.099 61.8758 15.099C61.6778 15.099 61.5188 15.045 61.3988 14.937C61.2848 14.823 61.2278 14.64 61.2278 14.388C61.0178 14.64 60.7718 14.823 60.4898 14.937C60.2138 15.045 59.9138 15.099 59.5898 15.099C59.3798 15.099 59.1788 15.075 58.9868 15.027C58.8008 14.979 58.6388 14.904 58.5008 14.802C58.3628 14.7 58.2518 14.568 58.1678 14.406C58.0898 14.238 58.0508 14.037 58.0508 13.803C58.0508 13.539 58.0958 13.323 58.1858 13.155C58.2758 12.987 58.3928 12.852 58.5368 12.75C58.6868 12.642 58.8548 12.561 59.0408 12.507C59.2328 12.453 59.4278 12.408 59.6258 12.372C59.8358 12.33 60.0338 12.3 60.2198 12.282C60.4118 12.258 60.5798 12.228 60.7238 12.192C60.8678 12.15 60.9818 12.093 61.0658 12.021C61.1498 11.943 61.1918 11.832 61.1918 11.688C61.1918 11.52 61.1588 11.385 61.0928 11.283C61.0328 11.181 60.9518 11.103 60.8498 11.049C60.7538 10.995 60.6428 10.959 60.5168 10.941C60.3968 10.923 60.2768 10.914 60.1568 10.914C59.8328 10.914 59.5628 10.977 59.3468 11.103C59.1308 11.223 59.0138 11.454 58.9958 11.796H58.2308C58.2428 11.508 58.3028 11.265 58.4108 11.067C58.5188 10.869 58.6628 10.71 58.8428 10.59C59.0228 10.464 59.2268 10.374 59.4548 10.32C59.6888 10.266 59.9378 10.239 60.2018 10.239C60.4118 10.239 60.6188 10.254 60.8228 10.284C61.0328 10.314 61.2218 10.377 61.3898 10.473C61.5578 10.563 61.6928 10.692 61.7948 10.86C61.8968 11.028 61.9478 11.247 61.9478 11.517V13.911C61.9478 14.091 61.9568 14.223 61.9748 14.307C61.9988 14.391 62.0708 14.433 62.1908 14.433C62.2568 14.433 62.3348 14.418 62.4248 14.388V14.982ZM61.1828 12.597C61.0868 12.669 60.9608 12.723 60.8048 12.759C60.6488 12.789 60.4838 12.816 60.3098 12.84C60.1418 12.858 59.9708 12.882 59.7968 12.912C59.6228 12.936 59.4668 12.978 59.3288 13.038C59.1908 13.098 59.0768 13.185 58.9868 13.299C58.9028 13.407 58.8608 13.557 58.8608 13.749C58.8608 13.875 58.8848 13.983 58.9328 14.073C58.9868 14.157 59.0528 14.226 59.1308 14.28C59.2148 14.334 59.3108 14.373 59.4188 14.397C59.5268 14.421 59.6408 14.433 59.7608 14.433C60.0128 14.433 60.2288 14.4 60.4088 14.334C60.5888 14.262 60.7358 14.175 60.8498 14.073C60.9638 13.965 61.0478 13.851 61.1018 13.731C61.1558 13.605 61.1828 13.488 61.1828 13.38V12.597ZM63.3438 8.574H64.1088V10.977H64.1268C64.2528 10.719 64.4508 10.533 64.7208 10.419C64.9908 10.299 65.2878 10.239 65.6118 10.239C65.9718 10.239 66.2838 10.305 66.5478 10.437C66.8178 10.569 67.0398 10.749 67.2138 10.977C67.3938 11.199 67.5288 11.457 67.6188 11.751C67.7088 12.045 67.7538 12.357 67.7538 12.687C67.7538 13.017 67.7088 13.329 67.6188 13.623C67.5348 13.917 67.4028 14.175 67.2228 14.397C67.0488 14.613 66.8268 14.784 66.5568 14.91C66.2928 15.036 65.9838 15.099 65.6298 15.099C65.5158 15.099 65.3868 15.087 65.2428 15.063C65.1048 15.039 64.9668 15 64.8288 14.946C64.6908 14.892 64.5588 14.82 64.4328 14.73C64.3128 14.634 64.2108 14.517 64.1268 14.379H64.1088V15H63.3438V8.574ZM66.9438 12.633C66.9438 12.417 66.9138 12.207 66.8538 12.003C66.7998 11.793 66.7128 11.607 66.5928 11.445C66.4788 11.283 66.3288 11.154 66.1428 11.058C65.9628 10.962 65.7498 10.914 65.5038 10.914C65.2458 10.914 65.0268 10.965 64.8468 11.067C64.6668 11.169 64.5198 11.304 64.4058 11.472C64.2918 11.634 64.2078 11.82 64.1538 12.03C64.1058 12.24 64.0818 12.453 64.0818 12.669C64.0818 12.897 64.1088 13.119 64.1628 13.335C64.2168 13.545 64.3008 13.731 64.4148 13.893C64.5348 14.055 64.6878 14.187 64.8738 14.289C65.0598 14.385 65.2848 14.433 65.5488 14.433C65.8128 14.433 66.0318 14.382 66.2058 14.28C66.3858 14.178 66.5298 14.043 66.6378 13.875C66.7458 13.707 66.8238 13.515 66.8718 13.299C66.9198 13.083 66.9438 12.861 66.9438 12.633ZM68.8768 8.574H69.6418V15H68.8768V8.574ZM74.2379 12.228C74.2259 12.048 74.1839 11.877 74.1119 11.715C74.0459 11.553 73.9529 11.415 73.8329 11.301C73.7189 11.181 73.5809 11.088 73.4189 11.022C73.2629 10.95 73.0889 10.914 72.8969 10.914C72.6989 10.914 72.5189 10.95 72.3569 11.022C72.2009 11.088 72.0659 11.181 71.9519 11.301C71.8379 11.421 71.7479 11.562 71.6819 11.724C71.6159 11.88 71.5769 12.048 71.5649 12.228H74.2379ZM74.9759 13.524C74.8739 14.046 74.6489 14.439 74.3009 14.703C73.9529 14.967 73.5149 15.099 72.9869 15.099C72.6149 15.099 72.2909 15.039 72.0149 14.919C71.7449 14.799 71.5169 14.631 71.3309 14.415C71.1449 14.199 71.0039 13.941 70.9079 13.641C70.8179 13.341 70.7669 13.014 70.7549 12.66C70.7549 12.306 70.8089 11.982 70.9169 11.688C71.0249 11.394 71.1749 11.139 71.3669 10.923C71.5649 10.707 71.7959 10.539 72.0599 10.419C72.3299 10.299 72.6239 10.239 72.9419 10.239C73.3559 10.239 73.6979 10.326 73.9679 10.5C74.2439 10.668 74.4629 10.884 74.6249 11.148C74.7929 11.412 74.9069 11.7 74.9669 12.012C75.0329 12.324 75.0599 12.621 75.0479 12.903H71.5649C71.5589 13.107 71.5829 13.302 71.6369 13.488C71.6909 13.668 71.7779 13.83 71.8979 13.974C72.0179 14.112 72.1709 14.223 72.3569 14.307C72.5429 14.391 72.7619 14.433 73.0139 14.433C73.3379 14.433 73.6019 14.358 73.8059 14.208C74.0159 14.058 74.1539 13.83 74.2199 13.524H74.9759ZM82.8278 14.982C82.6958 15.06 82.5128 15.099 82.2788 15.099C82.0808 15.099 81.9218 15.045 81.8018 14.937C81.6878 14.823 81.6308 14.64 81.6308 14.388C81.4208 14.64 81.1748 14.823 80.8928 14.937C80.6168 15.045 80.3168 15.099 79.9928 15.099C79.7828 15.099 79.5818 15.075 79.3898 15.027C79.2038 14.979 79.0418 14.904 78.9038 14.802C78.7658 14.7 78.6548 14.568 78.5708 14.406C78.4928 14.238 78.4538 14.037 78.4538 13.803C78.4538 13.539 78.4988 13.323 78.5888 13.155C78.6788 12.987 78.7958 12.852 78.9398 12.75C79.0898 12.642 79.2578 12.561 79.4438 12.507C79.6358 12.453 79.8308 12.408 80.0288 12.372C80.2388 12.33 80.4368 12.3 80.6228 12.282C80.8148 12.258 80.9828 12.228 81.1268 12.192C81.2708 12.15 81.3848 12.093 81.4688 12.021C81.5528 11.943 81.5948 11.832 81.5948 11.688C81.5948 11.52 81.5618 11.385 81.4958 11.283C81.4358 11.181 81.3548 11.103 81.2528 11.049C81.1568 10.995 81.0458 10.959 80.9198 10.941C80.7998 10.923 80.6798 10.914 80.5598 10.914C80.2358 10.914 79.9658 10.977 79.7498 11.103C79.5338 11.223 79.4168 11.454 79.3988 11.796H78.6338C78.6458 11.508 78.7058 11.265 78.8138 11.067C78.9218 10.869 79.0658 10.71 79.2458 10.59C79.4258 10.464 79.6298 10.374 79.8578 10.32C80.0918 10.266 80.3408 10.239 80.6048 10.239C80.8148 10.239 81.0218 10.254 81.2258 10.284C81.4358 10.314 81.6248 10.377 81.7928 10.473C81.9608 10.563 82.0958 10.692 82.1978 10.86C82.2998 11.028 82.3508 11.247 82.3508 11.517V13.911C82.3508 14.091 82.3598 14.223 82.3778 14.307C82.4018 14.391 82.4738 14.433 82.5938 14.433C82.6598 14.433 82.7378 14.418 82.8278 14.388V14.982ZM81.5858 12.597C81.4898 12.669 81.3638 12.723 81.2078 12.759C81.0518 12.789 80.8868 12.816 80.7128 12.84C80.5448 12.858 80.3738 12.882 80.1998 12.912C80.0258 12.936 79.8698 12.978 79.7318 13.038C79.5938 13.098 79.4798 13.185 79.3898 13.299C79.3058 13.407 79.2638 13.557 79.2638 13.749C79.2638 13.875 79.2878 13.983 79.3358 14.073C79.3898 14.157 79.4558 14.226 79.5338 14.28C79.6178 14.334 79.7138 14.373 79.8218 14.397C79.9298 14.421 80.0438 14.433 80.1638 14.433C80.4158 14.433 80.6318 14.4 80.8118 14.334C80.9918 14.262 81.1388 14.175 81.2528 14.073C81.3668 13.965 81.4508 13.851 81.5048 13.731C81.5588 13.605 81.5858 13.488 81.5858 13.38V12.597ZM84.7817 10.347H85.7087V11.022H84.7817V13.911C84.7817 14.001 84.7877 14.073 84.7997 14.127C84.8177 14.181 84.8477 14.223 84.8897 14.253C84.9317 14.283 84.9887 14.304 85.0607 14.316C85.1387 14.322 85.2377 14.325 85.3577 14.325H85.7087V15H85.1237C84.9257 15 84.7547 14.988 84.6107 14.964C84.4727 14.934 84.3587 14.883 84.2687 14.811C84.1847 14.739 84.1217 14.637 84.0797 14.505C84.0377 14.373 84.0167 14.199 84.0167 13.983V11.022H83.2247V10.347H84.0167V8.952H84.7817V10.347Z" fill="white"/>
<path d="M43.178 22.852H40.182V21.004H48.372V22.852H45.376V31H43.178V22.852ZM53.188 26.604C53.0947 26.1 52.9267 25.7173 52.684 25.456C52.4507 25.1947 52.0913 25.064 51.606 25.064C51.2887 25.064 51.0227 25.12 50.808 25.232C50.6027 25.3347 50.4347 25.4653 50.304 25.624C50.1827 25.7827 50.094 25.9507 50.038 26.128C49.9913 26.3053 49.9633 26.464 49.954 26.604H53.188ZM49.954 27.864C49.982 28.508 50.1453 28.9747 50.444 29.264C50.7427 29.5533 51.172 29.698 51.732 29.698C52.1333 29.698 52.4787 29.6 52.768 29.404C53.0573 29.1987 53.2347 28.984 53.3 28.76H55.05C54.77 29.628 54.3407 30.2487 53.762 30.622C53.1833 30.9953 52.4833 31.182 51.662 31.182C51.0927 31.182 50.5793 31.0933 50.122 30.916C49.6647 30.7293 49.2773 30.468 48.96 30.132C48.6427 29.796 48.3953 29.3947 48.218 28.928C48.05 28.4613 47.966 27.948 47.966 27.388C47.966 26.8467 48.0547 26.3427 48.232 25.876C48.4093 25.4093 48.6613 25.008 48.988 24.672C49.3147 24.3267 49.702 24.056 50.15 23.86C50.6073 23.664 51.1113 23.566 51.662 23.566C52.278 23.566 52.8147 23.6873 53.272 23.93C53.7293 24.1633 54.1027 24.4807 54.392 24.882C54.6907 25.2833 54.9053 25.7407 55.036 26.254C55.1667 26.7673 55.2133 27.304 55.176 27.864H49.954ZM56.9711 21.004H58.9591V31H56.9711V21.004ZM65.9564 26.604C65.8631 26.1 65.6951 25.7173 65.4524 25.456C65.2191 25.1947 64.8598 25.064 64.3744 25.064C64.0571 25.064 63.7911 25.12 63.5764 25.232C63.3711 25.3347 63.2031 25.4653 63.0724 25.624C62.9511 25.7827 62.8624 25.9507 62.8064 26.128C62.7598 26.3053 62.7318 26.464 62.7224 26.604H65.9564ZM62.7224 27.864C62.7504 28.508 62.9138 28.9747 63.2124 29.264C63.5111 29.5533 63.9404 29.698 64.5004 29.698C64.9018 29.698 65.2471 29.6 65.5364 29.404C65.8258 29.1987 66.0031 28.984 66.0684 28.76H67.8184C67.5384 29.628 67.1091 30.2487 66.5304 30.622C65.9518 30.9953 65.2518 31.182 64.4304 31.182C63.8611 31.182 63.3478 31.0933 62.8904 30.916C62.4331 30.7293 62.0458 30.468 61.7284 30.132C61.4111 29.796 61.1638 29.3947 60.9864 28.928C60.8184 28.4613 60.7344 27.948 60.7344 27.388C60.7344 26.8467 60.8231 26.3427 61.0004 25.876C61.1778 25.4093 61.4298 25.008 61.7564 24.672C62.0831 24.3267 62.4704 24.056 62.9184 23.86C63.3758 23.664 63.8798 23.566 64.4304 23.566C65.0464 23.566 65.5831 23.6873 66.0404 23.93C66.4978 24.1633 66.8711 24.4807 67.1604 24.882C67.4591 25.2833 67.6738 25.7407 67.8044 26.254C67.9351 26.7673 67.9818 27.304 67.9444 27.864H62.7224ZM73.0575 29.292C73.3375 29.292 73.5848 29.236 73.7995 29.124C74.0142 29.012 74.1915 28.8627 74.3315 28.676C74.4715 28.4893 74.5742 28.2793 74.6395 28.046C74.7142 27.8033 74.7515 27.5513 74.7515 27.29C74.7515 26.9913 74.7235 26.7113 74.6675 26.45C74.6115 26.1793 74.5182 25.9413 74.3875 25.736C74.2568 25.5307 74.0842 25.3673 73.8695 25.246C73.6548 25.1247 73.3842 25.064 73.0575 25.064C72.7775 25.064 72.5348 25.12 72.3295 25.232C72.1335 25.344 71.9655 25.498 71.8255 25.694C71.6948 25.8807 71.5968 26.1 71.5315 26.352C71.4755 26.5947 71.4475 26.8513 71.4475 27.122C71.4475 27.3833 71.4708 27.6447 71.5175 27.906C71.5735 28.158 71.6622 28.3867 71.7835 28.592C71.9142 28.7973 72.0822 28.9653 72.2875 29.096C72.4928 29.2267 72.7495 29.292 73.0575 29.292ZM76.6415 30.538C76.6415 30.8273 76.5995 31.1587 76.5155 31.532C76.4408 31.9053 76.2728 32.2507 76.0115 32.568C75.7502 32.8947 75.3722 33.17 74.8775 33.394C74.3828 33.618 73.7202 33.73 72.8895 33.73C72.5348 33.73 72.1708 33.6833 71.7975 33.59C71.4335 33.506 71.0975 33.3707 70.7895 33.184C70.4908 32.9973 70.2388 32.7547 70.0335 32.456C69.8375 32.1667 69.7255 31.8167 69.6975 31.406H71.6715C71.7648 31.7793 71.9468 32.036 72.2175 32.176C72.4882 32.3253 72.8008 32.4 73.1555 32.4C73.7155 32.4 74.1215 32.232 74.3735 31.896C74.6348 31.56 74.7608 31.1353 74.7515 30.622V29.67H74.7235C74.5088 30.0527 74.2008 30.3373 73.7995 30.524C73.4075 30.7013 72.9922 30.79 72.5535 30.79C72.0122 30.79 71.5455 30.6967 71.1535 30.51C70.7615 30.314 70.4395 30.0527 70.1875 29.726C69.9355 29.39 69.7488 29.0027 69.6275 28.564C69.5155 28.116 69.4595 27.6447 69.4595 27.15C69.4595 26.6833 69.5248 26.2353 69.6555 25.806C69.7955 25.3673 69.9962 24.9847 70.2575 24.658C70.5188 24.322 70.8408 24.056 71.2235 23.86C71.6155 23.664 72.0635 23.566 72.5675 23.566C73.0435 23.566 73.4588 23.6547 73.8135 23.832C74.1775 24.0093 74.4808 24.308 74.7235 24.728H74.7515V23.762H76.6415V30.538ZM78.8021 23.762H80.6921V25.106H80.7201C80.8134 24.882 80.9394 24.6767 81.0981 24.49C81.2568 24.294 81.4388 24.1307 81.6441 24C81.8494 23.86 82.0688 23.7527 82.3021 23.678C82.5354 23.6033 82.7781 23.566 83.0301 23.566C83.1608 23.566 83.3054 23.5893 83.4641 23.636V25.484C83.3708 25.4653 83.2588 25.4513 83.1281 25.442C82.9974 25.4233 82.8714 25.414 82.7501 25.414C82.3861 25.414 82.0781 25.4747 81.8261 25.596C81.5741 25.7173 81.3688 25.8853 81.2101 26.1C81.0608 26.3053 80.9534 26.548 80.8881 26.828C80.8228 27.108 80.7901 27.4113 80.7901 27.738V31H78.8021V23.762ZM84.7195 25.988C84.7475 25.5213 84.8642 25.134 85.0695 24.826C85.2748 24.518 85.5362 24.2707 85.8535 24.084C86.1708 23.8973 86.5255 23.7667 86.9175 23.692C87.3188 23.608 87.7202 23.566 88.1215 23.566C88.4855 23.566 88.8542 23.594 89.2275 23.65C89.6008 23.6967 89.9415 23.7947 90.2495 23.944C90.5575 24.0933 90.8095 24.3033 91.0055 24.574C91.2015 24.8353 91.2995 25.1853 91.2995 25.624V29.39C91.2995 29.7167 91.3182 30.0293 91.3555 30.328C91.3928 30.6267 91.4582 30.8507 91.5515 31H89.5355C89.4982 30.888 89.4655 30.776 89.4375 30.664C89.4188 30.5427 89.4048 30.4213 89.3955 30.3C89.0782 30.6267 88.7048 30.8553 88.2755 30.986C87.8462 31.1167 87.4075 31.182 86.9595 31.182C86.6142 31.182 86.2922 31.14 85.9935 31.056C85.6948 30.972 85.4335 30.8413 85.2095 30.664C84.9855 30.4867 84.8082 30.2627 84.6775 29.992C84.5562 29.7213 84.4955 29.3993 84.4955 29.026C84.4955 28.6153 84.5655 28.2793 84.7055 28.018C84.8548 27.7473 85.0415 27.5327 85.2655 27.374C85.4988 27.2153 85.7602 27.0987 86.0495 27.024C86.3482 26.94 86.6468 26.8747 86.9455 26.828C87.2442 26.7813 87.5382 26.744 87.8275 26.716C88.1168 26.688 88.3735 26.646 88.5975 26.59C88.8215 26.534 88.9988 26.4547 89.1295 26.352C89.2602 26.24 89.3208 26.0813 89.3115 25.876C89.3115 25.6613 89.2742 25.4933 89.1995 25.372C89.1342 25.2413 89.0408 25.1433 88.9195 25.078C88.8075 25.0033 88.6722 24.9567 88.5135 24.938C88.3642 24.91 88.2008 24.896 88.0235 24.896C87.6315 24.896 87.3235 24.98 87.0995 25.148C86.8755 25.316 86.7448 25.596 86.7075 25.988H84.7195ZM89.3115 27.458C89.2275 27.5327 89.1202 27.5933 88.9895 27.64C88.8682 27.6773 88.7328 27.71 88.5835 27.738C88.4435 27.766 88.2942 27.7893 88.1355 27.808C87.9768 27.8267 87.8182 27.85 87.6595 27.878C87.5102 27.906 87.3608 27.9433 87.2115 27.99C87.0715 28.0367 86.9455 28.102 86.8335 28.186C86.7308 28.2607 86.6468 28.3587 86.5815 28.48C86.5162 28.6013 86.4835 28.7553 86.4835 28.942C86.4835 29.1193 86.5162 29.2687 86.5815 29.39C86.6468 29.5113 86.7355 29.6093 86.8475 29.684C86.9595 29.7493 87.0902 29.796 87.2395 29.824C87.3888 29.852 87.5428 29.866 87.7015 29.866C88.0935 29.866 88.3968 29.8007 88.6115 29.67C88.8262 29.5393 88.9848 29.3853 89.0875 29.208C89.1902 29.0213 89.2508 28.8347 89.2695 28.648C89.2975 28.4613 89.3115 28.312 89.3115 28.2V27.458ZM93.4586 23.762H95.3346V24.742H95.3626C95.6239 24.3687 95.9366 24.0793 96.3006 23.874C96.6739 23.6687 97.0986 23.566 97.5746 23.566C98.0319 23.566 98.4472 23.6547 98.8206 23.832C99.2032 24.0093 99.4926 24.322 99.6886 24.77C99.9032 24.4527 100.193 24.1727 100.557 23.93C100.93 23.6873 101.369 23.566 101.873 23.566C102.255 23.566 102.61 23.6127 102.937 23.706C103.263 23.7993 103.543 23.9487 103.777 24.154C104.01 24.3593 104.192 24.63 104.323 24.966C104.453 25.2927 104.519 25.6893 104.519 26.156V31H102.531V26.898C102.531 26.6553 102.521 26.4267 102.503 26.212C102.484 25.9973 102.433 25.8107 102.349 25.652C102.265 25.4933 102.139 25.3673 101.971 25.274C101.812 25.1807 101.593 25.134 101.313 25.134C101.033 25.134 100.804 25.19 100.627 25.302C100.459 25.4047 100.323 25.5447 100.221 25.722C100.127 25.89 100.062 26.086 100.025 26.31C99.9966 26.5247 99.9826 26.744 99.9826 26.968V31H97.9946V26.94C97.9946 26.7253 97.9899 26.5153 97.9806 26.31C97.9712 26.0953 97.9292 25.8993 97.8546 25.722C97.7892 25.5447 97.6726 25.4047 97.5046 25.302C97.3459 25.19 97.1079 25.134 96.7906 25.134C96.6972 25.134 96.5712 25.1573 96.4126 25.204C96.2632 25.2413 96.1139 25.3207 95.9646 25.442C95.8246 25.554 95.7032 25.722 95.6006 25.946C95.4979 26.1607 95.4466 26.4453 95.4466 26.8V31H93.4586V23.762Z" fill="white"/>
<path d="M11.1475 19.8099C16.3949 17.5237 19.894 16.0165 21.6447 15.2883C26.6435 13.2092 27.6822 12.848 28.3592 12.8361C28.5081 12.8334 28.8411 12.8703 29.0567 13.0453C29.2388 13.1931 29.2889 13.3927 29.3129 13.5328C29.3369 13.6729 29.3667 13.992 29.343 14.2414C29.0721 17.0876 27.9 23.9947 27.3037 27.1825C27.0514 28.5314 26.5546 28.9836 26.0736 29.0279C25.0283 29.1241 24.2345 28.3371 23.2221 27.6735C21.6379 26.635 20.7429 25.9885 19.2051 24.9751C17.4279 23.804 18.58 23.1603 19.5928 22.1084C19.8579 21.8331 24.4635 17.644 24.5526 17.264C24.5637 17.2164 24.5741 17.0393 24.4688 16.9457C24.3636 16.8522 24.2083 16.8842 24.0962 16.9096C23.9373 16.9457 21.4064 18.6184 16.5036 21.928C15.7853 22.4212 15.1346 22.6616 14.5516 22.649C13.9089 22.6351 12.6726 22.2856 11.7536 21.9869C10.6263 21.6204 9.73043 21.4267 9.80845 20.8044C9.84908 20.4803 10.2954 20.1488 11.1475 19.8099Z" fill="white"/>
</svg>
