<svg xmlns="http://www.w3.org/2000/svg" width="580" height="580" viewBox="0 0 580 580">
  <path fill="#2b2a29" d="M404.5,2.4c-6.7,1.7-10.9,3.6-17.9,8.1-6.7,4.2-13.1,6.5-18.5,6.5-2,0-8.8-1.3-15.1-2.9C322.2,6.2,303.4,4,264.5,3.3c-25.3-.4-33.3-.2-43.4,1.1-45.2,6-81.7,26.1-111,61.1-18,21.5-31.3,50.5-36.5,79-2.5,13.8-3.6,38.3-2.5,54.2,2.1,30.5,6.7,48.7,18.3,72.4,9.6,19.5,9.5,21.2-2.8,48.9a222.13,222.13,0,0,0-14.3,46.9c-2.2,12.3-2.4,49.6-.4,62.1,4.2,26.7,15.1,57.5,27.4,78,23.5,38.9,57.6,61.4,104.7,68.9,28.3,4.6,58.2,4.5,89.5,0,9.3-1.3,34.4-6.5,42.4-8.7,9.2-2.5,9.5-3.2,11.9-24.7,1.2-9.9,3.1-24.9,4.4-33.3,1.7-11.2,2-15.7,1.2-17-1.5-2.4-12.2-5.8-14.2-4.5-1.3.8-11,23.1-17,39.3-2.3,6.2-11.1,14.7-19.8,19.3-9.4,4.9-25.7,10.2-37.3,12.1a105.81,105.81,0,0,1-83.5-21.6c-26.6-21.3-47.7-59.9-56.1-102.6-4.4-22.7-5-29.6-5-56.2.1-22.2.3-27,2.3-37.4,2.3-12.2,3.5-15.6,5.3-15.6.6,0,5,2.9,9.7,6.5,13.9,10.4,33,19.7,51,24.9,18.5,5.2,25.1,6,50.7,6.1s23.2.2,64.5-7c21.2-3.7,32-5.1,47.5-6,5.5-.3,11-.9,12.1-1.1,3.9-1,4.4-4.3,4.4-29.7,0-24.9,1.3-52.2,3.1-63.7,1.4-9.7,4.5-17.2,8.7-21.2,2-2,5.4-5.2,7.6-7.2,3.6-3.4,3.8-4,3.3-7.8-.9-7-2-7.4-13.4-4.9-22.5,5-34.7,6.3-63.3,6.8-17.6.3-35.1-.1-48.5-.9-51.3-3.4-81.1,3.1-116.7,25.4-4.3,2.6-8.7,4.8-9.8,4.8-2.9,0-4.6-4.1-9-21.3-6.2-24.8-7.5-35.6-7.5-64.2,0-26.5.8-34.7,5.1-51.9a129,129,0,0,1,34.8-60.8c22.8-22.7,58.7-34.5,94-30.8,21.9,2.2,44.1,9.8,59.7,20.2,14.7,9.8,17.7,14.4,21.4,33.5,3.5,18.1,7.6,32.6,11.7,41.5,4,8.4,10.9,19.4,15.7,24.8l3.1,3.5-.5-4.5a41.47,41.47,0,0,1,.2-9.3l.8-4.9,8,6.3c10.9,8.5,30.9,28.6,38.2,38.6a167.45,167.45,0,0,1,18.8,32.8,68.21,68.21,0,0,0,3.5,7.7c.3.5,3.5-4.6,7-11.3s7.4-12.5,8.4-13.1c1.3-.7,5.8-.9,12.2-.5l10.1.6.7-4.6c.3-2.5.6-6,.6-7.8,0-4,2-5.1,12.6-6.4,8.6-1.1,19.4-4.6,19.4-6.2,0-.6-2.5-6-5.5-12.2s-5.5-11.4-5.5-11.9c0-2.2,5.6-4,14.2-4.6l9.3-.7.8-8.5c1.1-12.5,1.7-13.6,10.6-17.8S549,97.1,549,96.1c0-.5-3.7-3-8.1-5.6-11.5-6.8-27.2-20-42.5-35.6C482.6,38.8,476,31.6,476,30.5c0-.4,2.5-.5,5.5-.3,3.7.3,5.4.1,5.2-.6C485.5,26,458.1,9.9,445.5,5.3,434.4,1.3,414.5-.1,404.5,2.4Zm33.8,25.7c11.1,2.3,24,6.8,30,10.6,2,1.3,13.1,11.7,24.5,23.1s24.4,23.4,28.9,26.7,8.1,6.4,8,6.8c-.5,1.9-28.8,12.4-44.9,16.6-24.6,6.6-52.7,6.9-73.3.9C394.8,108,382,99,375,87.4c-4.8-8-4.7-13.7.5-25.9,7.8-18.2,18.4-28,35.5-32.9C421.8,25.6,425.8,25.5,438.3,28.1Zm-63.1,74c7.4,7.3,14.7,12.1,25.3,16.6s18.3,6.2,32.4,7.2c14.6,1,16.1,1.7,16.1,7.5,0,4.1-3.8,26.4-6.1,35-2.5,10.1-5.2,18.6-5.9,18.6-.4,0-4.4-5.6-8.8-12.4a184.71,184.71,0,0,0-30.7-36.2c-23.9-21.3-28.6-27.2-29.3-36.6-.3-3.2-.1-5.8.3-5.8S371.9,98.7,375.2,102.1Zm137.6,16.7c.5,5.5-.8,6.2-11.9,6.2-5.5,0-9.9-.3-9.9-.8,0-2.3,16-9.5,20-8.9C511.9,115.4,512.6,116.8,512.8,118.8Zm-35.1,6.4c-5.1,13.5-10.3,33.5-11.2,43-.8,8-1.9,9.2-7.5,8.3-6.7-1.1-7.3-3.1-4.5-15.3a205.68,205.68,0,0,0,3.4-20.6c1.5-14.6,1.2-14.2,11.1-15.6C477.4,123.9,478.3,123.9,477.7,125.2Zm12.9,20c2.4,5.1,4.4,9.8,4.4,10.5,0,1.5-10.1,3.8-13.3,2.9a4.38,4.38,0,0,1-3.1-2.4c-.7-2.2,6.1-21.9,7.1-20.8A96.59,96.59,0,0,1,490.6,145.2ZM258.5,238.1c19.9,2.7,46.4,15.9,57.5,28.5a50.88,50.88,0,0,1,6.3,10.3c2.9,6.1,3.1,7.5,3.8,22.7,1,22.7,0,26.2-8.1,30.4-4.8,2.5-24,8.4-34.1,10.6-12.1,2.7-45.1,2.7-56.3,0-25.3-5.9-44.3-18.4-63.3-41.8-7.5-9.1-13.3-18.3-13.3-20.7,0-2.2,12.8-15.1,21.5-21.6C194.6,239.9,224.9,233.4,258.5,238.1Z"/>
</svg>