<svg width="450" height="451" viewBox="0 0 450 451" fill="none" xmlns="http://www.w3.org/2000/svg">
<rect y="0.872009" width="450" height="450" rx="50" fill="url(#paint0_linear_22_1418)"/>
<path d="M224.724 127.372C240.559 127.372 254.801 130.619 267.394 137.16L267.431 137.179C279.814 143.895 289.605 153.062 296.756 164.663L296.765 164.675C303.931 176.488 307.5 189.786 307.5 204.504V208.406H261.87V206.952C261.869 199.704 260.223 193.208 256.976 187.413C253.518 181.751 248.954 177.209 243.256 173.775C237.593 170.363 231.43 168.664 224.724 168.664C217.631 168.664 211.291 170.374 205.647 173.775L205.62 173.793C199.743 177.231 195.194 181.76 191.931 187.395L191.922 187.413C188.491 193.212 186.763 199.708 186.763 206.952V324.372H142.5V204.504C142.5 189.786 146.065 176.488 153.231 164.675L153.235 164.679C160.206 153.069 169.907 143.896 182.293 137.179L182.315 137.164C194.733 130.617 208.89 127.372 224.724 127.372ZM273.731 233.151H307.5V324.372H261.87V275.531H214.411V233.149H273.731V233.151Z" fill="white"/>
<defs>
<linearGradient id="paint0_linear_22_1418" x1="0" y1="0.872009" x2="539.595" y2="178.12" gradientUnits="userSpaceOnUse">
<stop stop-color="#4162FF"/>
<stop offset="1" stop-color="#40BCFC"/>
</linearGradient>
</defs>
</svg>
